  0
SECTION
  2
HEADER
  9
$ACADVER
  1
AC1024
  9
$ACADMAINTVER
 70
     6
  9
$DWGCODEPAGE
  3
ANSI_1252
  9
$INSBASE
 10
0.0
 20
0.0
 30
0.0
  9
$EXTMIN
 10
1.000000000000000E+20
 20
1.000000000000000E+20
 30
1.000000000000000E+20
  9
$EXTMAX
 10
-1.000000000000000E+20
 20
-1.000000000000000E+20
 30
-1.000000000000000E+20
  9
$LIMMIN
 10
0.0
 20
0.0
  9
$LIMMAX
 10
12.0
 20
9.0
  9
$ORTHOMODE
 70
     0
  9
$REGENMODE
 70
     1
  9
$FILLMODE
 70
     1
  9
$QTEXTMODE
 70
     0
  9
$MIRRTEXT
 70
     1
  9
$LTSCALE
 40
1.0
  9
$ATTMODE
 70
     1
  9
$TEXTSIZE
 40
0.2
  9
$TRACEWID
 40
0.05
  9
$TEXTSTYLE
  7
Standard
  9
$CLAYER
  8
0
  9
$CELTYPE
  6
ByLayer
  9
$CECOLOR
 62
   256
  9
$CELTSCALE
 40
1.0
  9
$DISPSILH
 70
     0
  9
$DIMSCALE
 40
1.0
  9
$DIMASZ
 40
0.18
  9
$DIMEXO
 40
0.0625
  9
$DIMDLI
 40
0.38
  9
$DIMRND
 40
0.0
  9
$DIMDLE
 40
0.0
  9
$DIMEXE
 40
0.18
  9
$DIMTP
 40
0.0
  9
$DIMTM
 40
0.0
  9
$DIMTXT
 40
0.18
  9
$DIMCEN
 40
0.09
  9
$DIMTSZ
 40
0.0
  9
$DIMTOL
 70
     0
  9
$DIMLIM
 70
     0
  9
$DIMTIH
 70
     1
  9
$DIMTOH
 70
     1
  9
$DIMSE1
 70
     0
  9
$DIMSE2
 70
     0
  9
$DIMTAD
 70
     0
  9
$DIMZIN
 70
     0
  9
$DIMBLK
  1

  9
$DIMASO
 70
     1
  9
$DIMSHO
 70
     1
  9
$DIMPOST
  1

  9
$DIMAPOST
  1

  9
$DIMALT
 70
     0
  9
$DIMALTD
 70
     2
  9
$DIMALTF
 40
25.4
  9
$DIMLFAC
 40
1.0
  9
$DIMTOFL
 70
     0
  9
$DIMTVP
 40
0.0
  9
$DIMTIX
 70
     0
  9
$DIMSOXD
 70
     0
  9
$DIMSAH
 70
     0
  9
$DIMBLK1
  1

  9
$DIMBLK2
  1

  9
$DIMSTYLE
  2
Standard
  9
$DIMCLRD
 70
     0
  9
$DIMCLRE
 70
     0
  9
$DIMCLRT
 70
     0
  9
$DIMTFAC
 40
1.0
  9
$DIMGAP
 40
0.09
  9
$DIMJUST
 70
     0
  9
$DIMSD1
 70
     0
  9
$DIMSD2
 70
     0
  9
$DIMTOLJ
 70
     1
  9
$DIMTZIN
 70
     0
  9
$DIMALTZ
 70
     0
  9
$DIMALTTZ
 70
     0
  9
$DIMUPT
 70
     0
  9
$DIMDEC
 70
     4
  9
$DIMTDEC
 70
     4
  9
$DIMALTU
 70
     2
  9
$DIMALTTD
 70
     2
  9
$DIMTXSTY
  7
Standard
  9
$DIMAUNIT
 70
     0
  9
$DIMADEC
 70
     0
  9
$DIMALTRND
 40
0.0
  9
$DIMAZIN
 70
     0
  9
$DIMDSEP
 70
    46
  9
$DIMATFIT
 70
     3
  9
$DIMFRAC
 70
     0
  9
$DIMLDRBLK
  1

  9
$DIMLUNIT
 70
     2
  9
$DIMLWD
 70
    -2
  9
$DIMLWE
 70
    -2
  9
$DIMTMOVE
 70
     0
  9
$DIMFXL
 40
1.0
  9
$DIMFXLON
 70
     0
  9
$DIMJOGANG
 40
0.7853981633974483
  9
$DIMTFILL
 70
     0
  9
$DIMTFILLCLR
 70
     0
  9
$DIMARCSYM
 70
     0
  9
$DIMLTYPE
  6

  9
$DIMLTEX1
  6

  9
$DIMLTEX2
  6

  9
$DIMTXTDIRECTION
 70
     0
  9
$LUNITS
 70
     2
  9
$LUPREC
 70
     4
  9
$SKETCHINC
 40
0.1
  9
$FILLETRAD
 40
0.5
  9
$AUNITS
 70
     0
  9
$AUPREC
 70
     0
  9
$MENU
  1
.
  9
$ELEVATION
 40
0.0
  9
$PELEVATION
 40
0.0
  9
$THICKNESS
 40
0.0
  9
$LIMCHECK
 70
     0
  9
$CHAMFERA
 40
0.5
  9
$CHAMFERB
 40
0.5
  9
$CHAMFERC
 40
1.0
  9
$CHAMFERD
 40
0.0
  9
$SKPOLY
 70
     0
  9
$TDCREATE
 40
2458052.62963434
  9
$TDUCREATE
 40
2458052.546301007
  9
$TDUPDATE
 40
2458052.629635509
  9
$TDUUPDATE
 40
2458052.546302176
  9
$TDINDWG
 40
0.0000000116
  9
$TDUSRTIMER
 40
0.0000000116
  9
$USRTIMER
 70
     1
  9
$ANGBASE
 50
0.0
  9
$ANGDIR
 70
     0
  9
$PDMODE
 70
     0
  9
$PDSIZE
 40
0.0
  9
$PLINEWID
 40
0.0
  9
$SPLFRAME
 70
     0
  9
$SPLINETYPE
 70
     6
  9
$SPLINESEGS
 70
     8
  9
$HANDSEED
  5
51
  9
$SURFTAB1
 70
     6
  9
$SURFTAB2
 70
     6
  9
$SURFTYPE
 70
     6
  9
$SURFU
 70
     6
  9
$SURFV
 70
     6
  9
$UCSBASE
  2

  9
$UCSNAME
  2

  9
$UCSORG
 10
0.0
 20
0.0
 30
0.0
  9
$UCSXDIR
 10
1.0
 20
0.0
 30
0.0
  9
$UCSYDIR
 10
0.0
 20
1.0
 30
0.0
  9
$UCSORTHOREF
  2

  9
$UCSORTHOVIEW
 70
     0
  9
$UCSORGTOP
 10
0.0
 20
0.0
 30
0.0
  9
$UCSORGBOTTOM
 10
0.0
 20
0.0
 30
0.0
  9
$UCSORGLEFT
 10
0.0
 20
0.0
 30
0.0
  9
$UCSORGRIGHT
 10
0.0
 20
0.0
 30
0.0
  9
$UCSORGFRONT
 10
0.0
 20
0.0
 30
0.0
  9
$UCSORGBACK
 10
0.0
 20
0.0
 30
0.0
  9
$PUCSBASE
  2

  9
$PUCSNAME
  2

  9
$PUCSORG
 10
0.0
 20
0.0
 30
0.0
  9
$PUCSXDIR
 10
1.0
 20
0.0
 30
0.0
  9
$PUCSYDIR
 10
0.0
 20
1.0
 30
0.0
  9
$PUCSORTHOREF
  2

  9
$PUCSORTHOVIEW
 70
     0
  9
$PUCSORGTOP
 10
0.0
 20
0.0
 30
0.0
  9
$PUCSORGBOTTOM
 10
0.0
 20
0.0
 30
0.0
  9
$PUCSORGLEFT
 10
0.0
 20
0.0
 30
0.0
  9
$PUCSORGRIGHT
 10
0.0
 20
0.0
 30
0.0
  9
$PUCSORGFRONT
 10
0.0
 20
0.0
 30
0.0
  9
$PUCSORGBACK
 10
0.0
 20
0.0
 30
0.0
  9
$USERI1
 70
     0
  9
$USERI2
 70
     0
  9
$USERI3
 70
     0
  9
$USERI4
 70
     0
  9
$USERI5
 70
     0
  9
$USERR1
 40
0.0
  9
$USERR2
 40
0.0
  9
$USERR3
 40
0.0
  9
$USERR4
 40
0.0
  9
$USERR5
 40
0.0
  9
$WORLDVIEW
 70
     1
  9
$SHADEDGE
 70
     3
  9
$SHADEDIF
 70
    70
  9
$TILEMODE
 70
     1
  9
$MAXACTVP
 70
    64
  9
$PINSBASE
 10
0.0
 20
0.0
 30
0.0
  9
$PLIMCHECK
 70
     0
  9
$PEXTMIN
 10
1.000000000000000E+20
 20
1.000000000000000E+20
 30
1.000000000000000E+20
  9
$PEXTMAX
 10
-1.000000000000000E+20
 20
-1.000000000000000E+20
 30
-1.000000000000000E+20
  9
$PLIMMIN
 10
0.0
 20
0.0
  9
$PLIMMAX
 10
12.0
 20
9.0
  9
$UNITMODE
 70
     0
  9
$VISRETAIN
 70
     1
  9
$PLINEGEN
 70
     0
  9
$PSLTSCALE
 70
     1
  9
$TREEDEPTH
 70
  3020
  9
$CMLSTYLE
  2
Standard
  9
$CMLJUST
 70
     0
  9
$CMLSCALE
 40
1.0
  9
$PROXYGRAPHICS
 70
     1
  9
$MEASUREMENT
 70
     0
  9
$CELWEIGHT
370
    -1
  9
$ENDCAPS
280
     0
  9
$JOINSTYLE
280
     0
  9
$LWDISPLAY
290
     1
  9
$INSUNITS
 70
     1
  9
$HYPERLINKBASE
  1

  9
$STYLESHEET
  1

  9
$XEDIT
290
     1
  9
$CEPSNTYPE
380
     0
  9
$PSTYLEMODE
290
     1
  9
$FINGERPRINTGUID
  2
{DB548A77-071B-4F2D-8A80-7C51032C9B7F}
  9
$VERSIONGUID
  2
{FAEB1C32-E019-11D5-929B-00C0DF256EC4}
  9
$EXTNAMES
290
     1
  9
$PSVPSCALE
 40
0.0
  9
$OLESTARTUP
290
     0
  9
$SORTENTS
280
   127
  9
$INDEXCTL
280
     0
  9
$HIDETEXT
280
     1
  9
$XCLIPFRAME
280
     2
  9
$HALOGAP
280
     0
  9
$OBSCOLOR
 70
   257
  9
$OBSLTYPE
280
     0
  9
$INTERSECTIONDISPLAY
280
     0
  9
$INTERSECTIONCOLOR
 70
   257
  9
$DIMASSOC
280
     2
  9
$PROJECTNAME
  1

  9
$CAMERADISPLAY
290
     0
  9
$LENSLENGTH
 40
50.0
  9
$CAMERAHEIGHT
 40
0.0
  9
$STEPSPERSEC
 40
2.0
  9
$STEPSIZE
 40
6.0
  9
$3DDWFPREC
 40
2.0
  9
$PSOLWIDTH
 40
0.25
  9
$PSOLHEIGHT
 40
4.0
  9
$LOFTANG1
 40
1.570796326794897
  9
$LOFTANG2
 40
1.570796326794897
  9
$LOFTMAG1
 40
0.0
  9
$LOFTMAG2
 40
0.0
  9
$LOFTPARAM
 70
     7
  9
$LOFTNORMALS
280
     1
  9
$LATITUDE
 40
37.795
  9
$LONGITUDE
 40
-122.394
  9
$NORTHDIRECTION
 40
0.0
  9
$TIMEZONE
 70
 -8000
  9
$LIGHTGLYPHDISPLAY
280
     1
  9
$TILEMODELIGHTSYNCH
280
     1
  9
$CMATERIAL
347
3C
  9
$SOLIDHIST
280
     1
  9
$SHOWHIST
280
     1
  9
$DWFFRAME
280
     2
  9
$DGNFRAME
280
     2
  9
$REALWORLDSCALE
290
     1
  9
$INTERFERECOLOR
 62
   256
  9
$CSHADOW
280
     0
  9
$SHADOWPLANELOCATION
 40
0.0
  0
ENDSEC
  0
SECTION
  2
CLASSES
  0
CLASS
  1
ACDBDICTIONARYWDFLT
  2
AcDbDictionaryWithDefault
  3
ObjectDBX Classes
 90
        0
 91
        4
280
     0
281
     0
  0
CLASS
  1
VISUALSTYLE
  2
AcDbVisualStyle
  3
ObjectDBX Classes
 90
     4095
 91
        4
280
     0
281
     0
  0
CLASS
  1
MATERIAL
  2
AcDbMaterial
  3
ObjectDBX Classes
 90
     1153
 91
        4
280
     0
281
     0
  0
CLASS
  1
SUN
  2
AcDbSun
  3
SCENEOE
 90
     1024
 91
        4
280
     0
281
     0
  0
ENDSEC
  0
SECTION
  2
TABLES
  0
TABLE
  2
VPORT
  5
8
330
0
100
AcDbSymbolTable
 70
     1
  0
VPORT
  5
29
330
8
100
AcDbSymbolTableRecord
100
AcDbViewportTableRecord
  2
*Active
 70
     0
 10
0.0
 20
0.0
 11
1.0
 21
1.0
 12
0.0
 22
0.0
 13
0.0
 23
0.0
 14
0.5
 24
0.5
 15
0.5
 25
0.5
 16
0.0
 26
0.0
 36
1.0
 17
2.5
 27
-2.5
 37
0.0
 40
5.0
 41
1.0
 42
50.0
 43
0.0
 44
0.0
 50
0.0
 51
0.0
 71
     0
 72
   100
 73
     1
 74
     3
 75
     0
 76
     0
 77
     0
 78
     0
281
     0
 65
     1
110
0.0
120
0.0
130
0.0
111
1.0
121
0.0
131
0.0
112
0.0
122
1.0
132
0.0
 79
     0
146
0.0
 60
     3
 61
     5
292
     1
282
     1
141
0.0
142
0.0
 63
   250
361
3F
  0
ENDTAB
  0
TABLE
  2
LTYPE
  5
5
330
0
100
AcDbSymbolTable
 70
     1
  0
LTYPE
  5
14
330
5
100
AcDbSymbolTableRecord
100
AcDbLinetypeTableRecord
  2
ByBlock
 70
     0
  3

 72
    65
 73
     0
 40
0.0
  0
LTYPE
  5
15
330
5
100
AcDbSymbolTableRecord
100
AcDbLinetypeTableRecord
  2
ByLayer
 70
     0
  3

 72
    65
 73
     0
 40
0.0
  0
LTYPE
  5
16
330
5
100
AcDbSymbolTableRecord
100
AcDbLinetypeTableRecord
  2
Continuous
 70
     0
  3
Solid line
 72
    65
 73
     0
 40
0.0
  0
ENDTAB
  0
TABLE
  2
LAYER
  5
2
330
0
100
AcDbSymbolTable
 70
     2
  0
LAYER
  5
10
330
2
100
AcDbSymbolTableRecord
100
AcDbLayerTableRecord
  2
0
 70
     0
 62
     7
  6
Continuous
370
    -3
390
F
347
3E
  0
LAYER
  5
40
330
2
100
AcDbSymbolTableRecord
100
AcDbLayerTableRecord
  2
Layer 1
 70
     0
 62
     7
  6
Continuous
370
    -3
390
F
347
3E
  0
ENDTAB
  0
TABLE
  2
STYLE
  5
3
330
0
100
AcDbSymbolTable
 70
     1
  0
STYLE
  5
11
330
3
100
AcDbSymbolTableRecord
100
AcDbTextStyleTableRecord
  2
Standard
 70
     0
 40
0.0
 41
1.0
 50
0.0
 71
     0
 42
0.2
  3
txt
  4

  0
ENDTAB
  0
TABLE
  2
VIEW
  5
6
330
0
100
AcDbSymbolTable
 70
     0
  0
ENDTAB
  0
TABLE
  2
UCS
  5
7
330
0
100
AcDbSymbolTable
 70
     0
  0
ENDTAB
  0
TABLE
  2
APPID
  5
9
330
0
100
AcDbSymbolTable
 70
     1
  0
APPID
  5
12
330
9
100
AcDbSymbolTableRecord
100
AcDbRegAppTableRecord
  2
ACAD
 70
     0
  0
ENDTAB
  0
TABLE
  2
DIMSTYLE
  5
A
330
0
100
AcDbSymbolTable
 70
     1
100
AcDbDimStyleTable
  0
DIMSTYLE
105
27
330
A
100
AcDbSymbolTableRecord
100
AcDbDimStyleTableRecord
  2
Standard
 70
     0
178
     0
340
11
  0
ENDTAB
  0
TABLE
  2
BLOCK_RECORD
  5
1
330
0
100
AcDbSymbolTable
 70
     2
  0
BLOCK_RECORD
  5
1F
330
1
100
AcDbSymbolTableRecord
100
AcDbBlockTableRecord
  2
*Model_Space
340
22
 70
     0
280
     1
281
     0
  0
BLOCK_RECORD
  5
1B
330
1
100
AcDbSymbolTableRecord
100
AcDbBlockTableRecord
  2
*Paper_Space
340
1E
 70
     0
280
     1
281
     0
  0
BLOCK_RECORD
  5
23
330
1
100
AcDbSymbolTableRecord
100
AcDbBlockTableRecord
  2
*Paper_Space0
340
26
 70
     0
280
     1
281
     0
  0
BLOCK_RECORD
  5
44
330
1
100
AcDbSymbolTableRecord
100
AcDbBlockTableRecord
  2
block 2
340
0
102
{BLKREFS
331
45
102
}
 70
     0
280
     1
281
     0
  0
ENDTAB
  0
ENDSEC
  0
SECTION
  2
BLOCKS
  0
BLOCK
  5
20
330
1F
100
AcDbEntity
  8
0
100
AcDbBlockBegin
  2
*Model_Space
 70
     0
 10
0.0
 20
0.0
 30
0.0
  3
*Model_Space
  1

  0
ENDBLK
  5
21
330
1F
100
AcDbEntity
  8
0
100
AcDbBlockEnd
  0
BLOCK
  5
1C
330
1B
100
AcDbEntity
 67
     1
  8
0
100
AcDbBlockBegin
  2
*Paper_Space
 70
     0
 10
0.0
 20
0.0
 30
0.0
  3
*Paper_Space
  1

  0
ENDBLK
  5
1D
330
1B
100
AcDbEntity
 67
     1
  8
0
100
AcDbBlockEnd
  0
BLOCK
  5
24
330
23
100
AcDbEntity
  8
0
100
AcDbBlockBegin
  2
*Paper_Space0
 70
     0
 10
0.0
 20
0.0
 30
0.0
  3
*Paper_Space0
  1

  0
ENDBLK
  5
25
330
23
100
AcDbEntity
  8
0
100
AcDbBlockEnd
  0
BLOCK
  5
46
330
44
100
AcDbEntity
  8
0
100
AcDbBlockBegin
  2
block 2
 70
     0
 10
0.0
 20
0.0
 30
0.0
  3
block 2
  1

  0
SPLINE
  5
48
330
44
100
AcDbEntity
  8
Layer 1
370
     0
100
AcDbSpline
210
0.0
220
0.0
230
1.0
 70
    11
 71
     3
 72
    17
 73
    13
 74
     0
 42
0.0000000001
 43
0.0000000001
 12
1.0
 22
0.0
 32
0.0
 13
1.0
 23
0.0
 33
0.0
 40
0.0
 40
0.0
 40
0.0
 40
0.0
 40
1.0
 40
1.0
 40
1.0
 40
2.0
 40
2.0
 40
2.0
 40
3.0
 40
3.0
 40
3.0
 40
4.0
 40
4.0
 40
4.0
 40
4.0
 10
2.152822225955649
 20
-1.654696208604681
 30
0.0
 10
1.875534572783875
 20
-1.654797213586233
 30
0.0
 10
1.655480791188691
 20
-1.433348721537439
 30
0.0
 10
1.655183307469214
 20
-1.153902808349143
 30
0.0
 10
1.654892677659202
 20
-0.8810519492970899
 30
0.0
 10
1.876807716527537
 20
-0.6586479080373995
 30
0.0
 10
2.149805543839951
 20
-0.6581902592757463
 30
0.0
 10
2.430819078390755
 20
-0.6577191732442316
 30
0.0
 10
2.655517165232949
 20
-0.8830874101024113
 30
0.0
 10
2.652977370923003
 20
-1.162862551432972
 30
0.0
 10
2.650515975717781
 20
-1.433992628294845
 30
0.0
 10
2.426179462660747
 20
-1.654596646551441
 30
0.0
 10
2.152822225955649
 20
-1.654696208604681
 30
0.0
  0
SPLINE
  5
49
330
44
100
AcDbEntity
  8
Layer 1
370
     0
100
AcDbSpline
210
0.0
220
0.0
230
1.0
 70
    11
 71
     3
 72
    17
 73
    13
 74
     0
 42
0.0000000001
 43
0.0000000001
 12
1.0
 22
0.0
 32
0.0
 13
1.0
 23
0.0
 33
0.0
 40
0.0
 40
0.0
 40
0.0
 40
0.0
 40
1.0
 40
1.0
 40
1.0
 40
2.0
 40
2.0
 40
2.0
 40
3.0
 40
3.0
 40
3.0
 40
4.0
 40
4.0
 40
4.0
 40
4.0
 10
2.469260973149504
 20
-1.300687756692178
 30
0.0
 10
2.472038850630257
 20
-1.190217345805953
 30
0.0
 10
2.390081725182199
 20
-1.102293230828663
 30
0.0
 10
2.281899137250143
 20
-1.099684476570006
 30
0.0
 10
2.171172907199333
 20
-1.097014518102292
 30
0.0
 10
2.082383997189507
 20
-1.178789233363419
 30
0.0
 10
2.079465193710689
 20
-1.286126565917104
 30
0.0
 10
2.076412919363393
 20
-1.398370756547832
 30
0.0
 10
2.15905531551367
 20
-1.486957957204608
 30
0.0
 10
2.269237441348385
 20
-1.489550057665711
 30
0.0
 10
2.378657340304458
 20
-1.492124241767
 30
0.0
 10
2.466533598159534
 20
-1.409151475156225
 30
0.0
 10
2.469260973149504
 20
-1.300687756692178
 30
0.0
  0
SPLINE
  5
4A
330
44
100
AcDbEntity
  8
Layer 1
370
     0
100
AcDbSpline
210
0.0
220
0.0
230
1.0
 70
    11
 71
     3
 72
    17
 73
    13
 74
     0
 42
0.0000000001
 43
0.0000000001
 12
1.0
 22
0.0
 32
0.0
 13
1.0
 23
0.0
 33
0.0
 40
0.0
 40
0.0
 40
0.0
 40
0.0
 40
1.0
 40
1.0
 40
1.0
 40
2.0
 40
2.0
 40
2.0
 40
3.0
 40
3.0
 40
3.0
 40
4.0
 40
4.0
 40
4.0
 40
4.0
 10
3.635331218346209
 20
-1.228190838417415
 30
0.0
 10
3.637298410605985
 20
-1.503395564454725
 30
0.0
 10
3.423270538112597
 20
-1.724705775874011
 30
0.0
 10
3.153666117448286
 20
-1.726244418426328
 30
0.0
 10
2.889855775404309
 20
-1.727750114115616
 30
0.0
 10
2.673843635999522
 20
-1.506115724803155
 30
0.0
 10
2.671651587411791
 20
-1.231684528582895
 30
0.0
 10
2.669448476373671
 20
-0.955872029117889
 30
0.0
 10
2.883352738008675
 20
-0.7316913823791158
 30
0.0
 10
3.15031804279786
 20
-0.7300215535948003
 30
0.0
 10
3.420457549376376
 20
-0.7283318544852541
 30
0.0
 10
3.633320738237217
 20
-0.9469689810921534
 30
0.0
 10
3.635331218346209
 20
-1.228190838417415
 30
0.0
  0
SPLINE
  5
4B
330
44
100
AcDbEntity
  8
Layer 1
370
     0
100
AcDbSpline
210
0.0
220
0.0
230
1.0
 70
    11
 71
     3
 72
    17
 73
    13
 74
     0
 42
0.0000000001
 43
0.0000000001
 12
1.0
 22
0.0
 32
0.0
 13
1.0
 23
0.0
 33
0.0
 40
0.0
 40
0.0
 40
0.0
 40
0.0
 40
1.0
 40
1.0
 40
1.0
 40
2.0
 40
2.0
 40
2.0
 40
3.0
 40
3.0
 40
3.0
 40
4.0
 40
4.0
 40
4.0
 40
4.0
 10
3.009356212007358
 20
-1.341453916799537
 30
0.0
 10
3.115559583277091
 20
-1.342270253489737
 30
0.0
 10
3.205103625768035
 20
-1.255021308716512
 30
0.0
 10
3.207312027543265
 20
-1.14857203841431
 30
0.0
 10
3.209520429318495
 20
-1.042118078595119
 30
0.0
 10
3.121353902385484
 20
-0.9507606960752355
 30
0.0
 10
3.015802975198969
 20
-0.9501319400650597
 30
0.0
 10
2.902236581262109
 20
-0.949455447176711
 30
0.0
 10
2.814200879829008
 20
-1.034981054574208
 30
0.0
 10
2.814380764891414
 20
-1.145811295707227
 30
0.0
 10
2.814553675800299
 20
-1.252408766771042
 30
0.0
 10
2.902476588337322
 20
-1.340632349494235
 30
0.0
 10
3.009356212007358
 20
-1.341453916799537
 30
0.0
  0
SPLINE
  5
4C
330
44
100
AcDbEntity
  8
Layer 1
370
     0
100
AcDbSpline
210
0.0
220
0.0
230
1.0
 70
    11
 71
     3
 72
   323
 73
   319
 74
     0
 42
0.0000000001
 43
0.0000000001
 12
1.0
 22
0.0
 32
0.0
 13
1.0
 23
0.0
 33
0.0
 40
0.0
 40
0.0
 40
0.0
 40
0.0
 40
1.0
 40
1.0
 40
1.0
 40
2.0
 40
2.0
 40
2.0
 40
3.0
 40
3.0
 40
3.0
 40
4.0
 40
4.0
 40
4.0
 40
5.0
 40
5.0
 40
5.0
 40
6.0
 40
6.0
 40
6.0
 40
7.0
 40
7.0
 40
7.0
 40
8.0
 40
8.0
 40
8.0
 40
9.0
 40
9.0
 40
9.0
 40
10.0
 40
10.0
 40
10.0
 40
11.0
 40
11.0
 40
11.0
 40
12.0
 40
12.0
 40
12.0
 40
13.0
 40
13.0
 40
13.0
 40
14.0
 40
14.0
 40
14.0
 40
15.0
 40
15.0
 40
15.0
 40
16.0
 40
16.0
 40
16.0
 40
17.0
 40
17.0
 40
17.0
 40
18.0
 40
18.0
 40
18.0
 40
19.0
 40
19.0
 40
19.0
 40
20.0
 40
20.0
 40
20.0
 40
21.0
 40
21.0
 40
21.0
 40
22.0
 40
22.0
 40
22.0
 40
23.0
 40
23.0
 40
23.0
 40
24.0
 40
24.0
 40
24.0
 40
25.0
 40
25.0
 40
25.0
 40
26.0
 40
26.0
 40
26.0
 40
27.0
 40
27.0
 40
27.0
 40
28.0
 40
28.0
 40
28.0
 40
29.0
 40
29.0
 40
29.0
 40
30.0
 40
30.0
 40
30.0
 40
31.0
 40
31.0
 40
31.0
 40
32.0
 40
32.0
 40
32.0
 40
33.0
 40
33.0
 40
33.0
 40
34.0
 40
34.0
 40
34.0
 40
35.0
 40
35.0
 40
35.0
 40
36.0
 40
36.0
 40
36.0
 40
37.0
 40
37.0
 40
37.0
 40
38.0
 40
38.0
 40
38.0
 40
39.0
 40
39.0
 40
39.0
 40
40.0
 40
40.0
 40
40.0
 40
41.0
 40
41.0
 40
41.0
 40
42.0
 40
42.0
 40
42.0
 40
43.0
 40
43.0
 40
43.0
 40
44.0
 40
44.0
 40
44.0
 40
45.0
 40
45.0
 40
45.0
 40
46.0
 40
46.0
 40
46.0
 40
47.0
 40
47.0
 40
47.0
 40
48.0
 40
48.0
 40
48.0
 40
49.0
 40
49.0
 40
49.0
 40
50.0
 40
50.0
 40
50.0
 40
51.0
 40
51.0
 40
51.0
 40
52.0
 40
52.0
 40
52.0
 40
53.0
 40
53.0
 40
53.0
 40
54.0
 40
54.0
 40
54.0
 40
55.0
 40
55.0
 40
55.0
 40
56.0
 40
56.0
 40
56.0
 40
57.0
 40
57.0
 40
57.0
 40
58.0
 40
58.0
 40
58.0
 40
59.0
 40
59.0
 40
59.0
 40
60.0
 40
60.0
 40
60.0
 40
61.0
 40
61.0
 40
61.0
 40
62.0
 40
62.0
 40
62.0
 40
63.0
 40
63.0
 40
63.0
 40
64.0
 40
64.0
 40
64.0
 40
65.0
 40
65.0
 40
65.0
 40
66.0
 40
66.0
 40
66.0
 40
67.0
 40
67.0
 40
67.0
 40
68.0
 40
68.0
 40
68.0
 40
69.0
 40
69.0
 40
69.0
 40
70.0
 40
70.0
 40
70.0
 40
71.0
 40
71.0
 40
71.0
 40
72.0
 40
72.0
 40
72.0
 40
73.0
 40
73.0
 40
73.0
 40
74.0
 40
74.0
 40
74.0
 40
75.0
 40
75.0
 40
75.0
 40
76.0
 40
76.0
 40
76.0
 40
77.0
 40
77.0
 40
77.0
 40
78.0
 40
78.0
 40
78.0
 40
79.0
 40
79.0
 40
79.0
 40
80.0
 40
80.0
 40
80.0
 40
81.0
 40
81.0
 40
81.0
 40
82.0
 40
82.0
 40
82.0
 40
83.0
 40
83.0
 40
83.0
 40
84.0
 40
84.0
 40
84.0
 40
85.0
 40
85.0
 40
85.0
 40
86.0
 40
86.0
 40
86.0
 40
87.0
 40
87.0
 40
87.0
 40
88.0
 40
88.0
 40
88.0
 40
89.0
 40
89.0
 40
89.0
 40
90.0
 40
90.0
 40
90.0
 40
91.0
 40
91.0
 40
91.0
 40
92.0
 40
92.0
 40
92.0
 40
93.0
 40
93.0
 40
93.0
 40
94.0
 40
94.0
 40
94.0
 40
95.0
 40
95.0
 40
95.0
 40
96.0
 40
96.0
 40
96.0
 40
97.0
 40
97.0
 40
97.0
 40
98.0
 40
98.0
 40
98.0
 40
99.0
 40
99.0
 40
99.0
 40
100.0
 40
100.0
 40
100.0
 40
101.0
 40
101.0
 40
101.0
 40
102.0
 40
102.0
 40
102.0
 40
103.0
 40
103.0
 40
103.0
 40
104.0
 40
104.0
 40
104.0
 40
105.0
 40
105.0
 40
105.0
 40
106.0
 40
106.0
 40
106.0
 40
106.0
 10
0.5987794462625465
 20
-2.391040328692813
 30
0.0
 10
0.617354194732785
 20
-2.22424430947779
 30
0.0
 10
0.6521678913528477
 20
-2.065125270080898
 30
0.0
 10
0.7919363152192065
 20
-1.950819495630273
 30
0.0
 10
0.8297764186905472
 20
-1.919872891966873
 30
0.0
 10
0.8274615107695934
 20
-1.916533474886301
 30
0.0
 10
0.7858033588735477
 20
-1.892626677949061
 30
0.0
 10
0.7497252211711863
 20
-1.87192209965911
 30
0.0
 10
0.7182037759126211
 20
-1.847856941340069
 30
0.0
 10
0.706508526336582
 20
-1.804868499727174
 30
0.0
 10
0.6955727079655895
 20
-1.764671523169921
 30
0.0
 10
0.700612255324927
 20
-1.75770819164408
 30
0.0
 10
0.7425609318174666
 20
-1.763746606124565
 30
0.0
 10
0.8466409739601077
 20
-1.778728891477486
 30
0.0
 10
0.9467539552692743
 20
-1.766626691027113
 30
0.0
 10
1.041833341298356
 20
-1.720682290531487
 30
0.0
 10
1.073742678753181
 20
-1.705262918145283
 30
0.0
 10
1.103136270703203
 20
-1.685426261232528
 30
0.0
 10
1.129877580057281
 20
-1.662020280662154
 30
0.0
 10
1.152270324345459
 20
-1.642420624723968
 30
0.0
 10
1.146395020885784
 20
-1.626713147652304
 30
0.0
 10
1.119981196135579
 20
-1.621068532355846
 30
0.0
 10
1.090658969014789
 20
-1.614802736422853
 30
0.0
 10
1.060194183162202
 20
-1.614071171770749
 30
0.0
 10
1.030493968946757
 20
-1.609275599539463
 30
0.0
 10
1.021307926606634
 20
-1.607792389482976
 30
0.0
 10
1.006866739369166
 20
-1.611959205704099
 30
0.0
 10
1.003931342214805
 20
-1.598424898908143
 30
0.0
 10
1.001249118856473
 20
-1.586058402089369
 30
0.0
 10
1.01389981242989
 20
-1.581170001470279
 30
0.0
 10
1.021847762159824
 20
-1.575021443462295
 30
0.0
 10
1.130161776811923
 20
-1.491229033450635
 30
0.0
 10
1.251957551620762
 20
-1.458772766045096
 30
0.0
 10
1.387683777168099
 20
-1.479033523636341
 30
0.0
 10
1.401315181014765
 20
-1.481068413282552
 30
0.0
 10
1.41535661698894
 20
-1.489136667160159
 30
0.0
 10
1.434424734211701
 20
-1.475653945051211
 30
0.0
 10
1.409089438249642
 20
-1.457601348747138
 30
0.0
 10
1.385642394344498
 20
-1.440558201038458
 30
0.0
 10
1.361829628235329
 20
-1.424042263260288
 30
0.0
 10
1.345344593171742
 20
-1.41260873983659
 30
0.0
 10
1.328569529518265
 20
-1.400685823228476
 30
0.0
 10
1.32773130841541
 20
-1.378818004234315
 30
0.0
 10
1.326991867779624
 20
-1.359527916540186
 30
0.0
 10
1.337484241214497
 20
-1.342446290743295
 30
0.0
 10
1.351242502508234
 20
-1.330658949274102
 30
0.0
 10
1.366878073652565
 20
-1.317263103473692
 30
0.0
 10
1.376727141550166
 20
-1.33706188351837
 30
0.0
 10
1.388060561822486
 20
-1.343342349222502
 30
0.0
 10
1.457078768767625
 20
-1.381589629025724
 30
0.0
 10
1.5317274022142
 20
-1.400485196071663
 30
0.0
 10
1.609439071848353
 20
-1.407731521911892
 30
0.0
 10
1.640799074471955
 20
-1.410655676249853
 30
0.0
 10
1.663174924474535
 20
-1.418879465774643
 30
0.0
 10
1.681842087993737
 20
-1.448791670207331
 30
0.0
 10
1.853085933717832
 20
-1.723193466763316
 30
0.0
 10
2.220221365789371
 20
-1.786438337182542
 30
0.0
 10
2.47280247900926
 20
-1.598995697297937
 30
0.0
 10
2.529296489095991
 20
-1.557070934336012
 30
0.0
 10
2.576887150546908
 20
-1.507249505721082
 30
0.0
 10
2.61323186925415
 20
-1.446835059421826
 30
0.0
 10
2.618454788752615
 20
-1.438153440769333
 30
0.0
 10
2.621202364738893
 20
-1.424588171136772
 30
0.0
 10
2.632900665507097
 20
-1.424401612530965
 30
0.0
 10
2.645968064751413
 20
-1.42419316951249
 30
0.0
 10
2.64574657525615
 20
-1.438664838610457
 30
0.0
 10
2.649841605793957
 20
-1.447679172481937
 30
0.0
 10
2.737299895415845
 20
-1.640202002206555
 30
0.0
 10
2.884574778041446
 20
-1.756264782360088
 30
0.0
 10
3.0957593603041
 20
-1.775131190229811
 30
0.0
 10
3.29607556606369
 20
-1.79302674783638
 30
0.0
 10
3.455886369340179
 20
-1.710245109104385
 30
0.0
 10
3.573256562784688
 20
-1.547774387736303
 30
0.0
 10
3.589150418096147
 20
-1.525772857385606
 30
0.0
 10
3.600869400836725
 20
-1.520388931136785
 30
0.0
 10
3.623136429996091
 20
-1.535387569677204
 30
0.0
 10
3.734207279424431
 20
-1.610201959513132
 30
0.0
 10
3.857233270859776
 20
-1.621011055711582
 30
0.0
 10
3.985696697135381
 20
-1.602178556657097
 30
0.0
 10
4.002549859283514
 20
-1.5997079026619
 30
0.0
 10
4.019551402559298
 20
-1.598085930999812
 30
0.0
 10
4.0365356306954
 20
-1.596702523484611
 30
0.0
 10
4.077271180243593
 20
-1.593384389596597
 30
0.0
 10
4.088547664969761
 20
-1.607915278877196
 30
0.0
 10
4.07351307346567
 20
-1.64643641444886
 30
0.0
 10
4.058421005317314
 20
-1.685104608463891
 30
0.0
 10
4.026911539369823
 20
-1.71242837987826
 30
0.0
 10
4.000269311092881
 20
-1.746342004874767
 30
0.0
 10
4.033703883891172
 20
-1.762362837877302
 30
0.0
 10
4.06940168974039
 20
-1.765786305531795
 30
0.0
 10
4.103339844518132
 20
-1.769257149332412
 30
0.0
 10
4.199592060712474
 20
-1.77910068600483
 30
0.0
 10
4.239903148850064
 20
-1.847521340264456
 30
0.0
 10
4.274513467731241
 20
-1.923553441348228
 30
0.0
 10
4.284075272651535
 20
-1.944558749946345
 30
0.0
 10
4.272636939466818
 20
-1.947385686989567
 30
0.0
 10
4.254177076647844
 20
-1.94653135318726
 30
0.0
 10
4.207001978549619
 20
-1.944348082413399
 30
0.0
 10
4.205860862746123
 20
-1.945638661540784
 30
0.0
 10
4.229449854723549
 20
-1.98626190316899
 30
0.0
 10
4.253898591484433
 20
-2.028365468997069
 30
0.0
 10
4.274404286155939
 20
-2.072022106660547
 30
0.0
 10
4.292602257487033
 20
-2.117140791431994
 30
0.0
 10
4.316458672177532
 20
-2.176288707409008
 30
0.0
 10
4.374353525163163
 20
-2.194943966769668
 30
0.0
 10
4.424092466376477
 20
-2.223012890411029
 30
0.0
 10
4.433208165961585
 20
-2.228157050072696
 30
0.0
 10
4.451442931964544
 20
-2.224253448023748
 30
0.0
 10
4.448629702740239
 20
-2.241902144645628
 30
0.0
 10
4.446603590907923
 20
-2.254613741818035
 30
0.0
 10
4.433385886631514
 20
-2.258240061143826
 30
0.0
 10
4.422094010670055
 20
-2.262520988945286
 30
0.0
 10
4.396365156012027
 20
-2.272275545038724
 30
0.0
 10
4.370470605086616
 20
-2.269826053992043
 30
0.0
 10
4.344448355005978
 20
-2.265032405665174
 30
0.0
 10
4.335472859954785
 20
-2.263379170556403
 30
0.0
 10
4.32493587598641
 20
-2.258273729471006
 30
0.0
 10
4.318323176039383
 20
-2.2659229329192
 30
0.0
 10
4.310734816068159
 20
-2.27470038606014
 30
0.0
 10
4.320240827760573
 20
-2.282519734804636
 30
0.0
 10
4.3248464144313
 20
-2.290062402046096
 30
0.0
 10
4.386489033208641
 20
-2.391014235739249
 30
0.0
 10
4.410404126983646
 20
-2.503341514991689
 30
0.0
 10
4.423706242566064
 20
-2.618815219663525
 30
0.0
 10
4.424874533519364
 20
-2.628956841275542
 30
0.0
 10
4.430965374395024
 20
-2.642020873687165
 30
0.0
 10
4.4222479230229
 20
-2.648844000679067
 30
0.0
 10
4.410384406963455
 20
-2.658129965804518
 30
0.0
 10
4.401566431585858
 20
-2.643246881772761
 30
0.0
 10
4.391318514255166
 20
-2.639135498047481
 30
0.0
 10
4.363020766232972
 20
-2.627783019097074
 30
0.0
 10
4.343924331542161
 20
-2.603872494595028
 30
0.0
 10
4.318245498398811
 20
-2.586363521530959
 30
0.0
 10
4.334785304616085
 20
-2.665721933096493
 30
0.0
 10
4.351905168013117
 20
-2.744089774378658
 30
0.0
 10
4.394117795172481
 20
-2.81412903346768
 30
0.0
 10
4.408573291449001
 20
-2.838113387801463
 30
0.0
 10
4.435712608527991
 20
-2.844808575150106
 30
0.0
 10
4.458121525637631
 20
-2.857683583953379
 30
0.0
 10
4.470895288971304
 20
-2.86502279830342
 30
0.0
 10
4.486916121973814
 20
-2.872472877645123
 30
0.0
 10
4.486099424551563
 20
-2.88741632417777
 30
0.0
 10
4.485173786042044
 20
-2.904342113717398
 30
0.0
 10
4.472851899756784
 20
-2.917631964409186
 30
0.0
 10
4.455827269628066
 20
-2.925374958197381
 30
0.0
 10
4.421323486953648
 20
-2.941067765497918
 30
0.0
 10
4.38858584852806
 20
-2.929721298748821
 30
0.0
 10
4.356713245623066
 20
-2.918466457947261
 30
0.0
 10
4.28297455884068
 20
-2.892428095167184
 30
0.0
 10
4.284170024943756
 20
-2.891764348145544
 30
0.0
 10
4.278176822216917
 20
-2.968126278591676
 30
0.0
 10
4.271826494733887
 20
-3.049043293217791
 30
0.0
 10
4.273392552924053
 20
-3.130928031762399
 30
0.0
 10
4.249127549034382
 20
-3.209834085303429
 30
0.0
 10
4.238359696536741
 20
-3.244849626551058
 30
0.0
 10
4.219778868227952
 20
-3.274106200433835
 30
0.0
 10
4.19199841000414
 20
-3.297547051771668
 30
0.0
 10
4.145981502361034
 20
-3.3363750500968
 30
0.0
 10
4.127529094671647
 20
-3.333410794376277
 30
0.0
 10
4.100222397908914
 20
-3.281187611592865
 30
0.0
 10
4.067133406440385
 20
-3.313100856978533
 30
0.0
 10
4.059707375903801
 20
-3.356271829022388
 30
0.0
 10
4.046869402260427
 20
-3.395895361821254
 30
0.0
 10
4.038298408111561
 20
-3.422348566489871
 30
0.0
 10
4.031438245959736
 20
-3.45028894926779
 30
0.0
 10
4.014629574101087
 20
-3.471464884138337
 30
0.0
 10
3.95301076364083
 20
-3.549094667591008
 30
0.0
 10
3.93714312152699
 20
-3.64195119250078
 30
0.0
 10
3.921166297837847
 20
-3.735203801231061
 30
0.0
 10
3.91562689606384
 20
-3.76753573631408
 30
0.0
 10
3.909749608577739
 20
-3.799810675728925
 30
0.0
 10
3.90435137328988
 20
-3.832165697664853
 30
0.0
 10
3.902220408667163
 20
-3.844936575141901
 30
0.0
 10
3.903368017648038
 20
-3.860564210180529
 30
0.0
 10
3.884190057507845
 20
-3.859320165491074
 30
0.0
 10
3.869167490406324
 20
-3.858345467419111
 30
0.0
 10
3.857121684403965
 20
-3.852380882770376
 30
0.0
 10
3.852173402260102
 20
-3.835359138498259
 30
0.0
 10
3.844244511208242
 20
-3.808084667134431
 30
0.0
 10
3.834429953346014
 20
-3.781358268039538
 30
0.0
 10
3.82520026242456
 20
-3.753765150007691
 30
0.0
 10
3.802701643271803
 20
-3.761504055499042
 30
0.0
 10
3.805692593166011
 20
-3.779160928714671
 30
0.0
 10
3.803278333618866
 20
-3.79125026305428
 30
0.0
 10
3.782831799007959
 20
-3.893636607973551
 30
0.0
 10
3.724673852094181
 20
-3.965909520083162
 30
0.0
 10
3.632422154633483
 20
-4.01277799591599
 30
0.0
 10
3.593865426830234
 20
-4.032366228671738
 30
0.0
 10
3.556371175237675
 20
-4.054038290392125
 30
0.0
 10
3.518147282897441
 20
-4.074297244323008
 30
0.0
 10
3.511763287087231
 20
-4.077680430228914
 30
0.0
 10
3.503061226950371
 20
-4.083651508055001
 30
0.0
 10
3.497317169844715
 20
-4.075236109675339
 30
0.0
 10
3.494484701576312
 20
-4.071086247861836
 30
0.0
 10
3.496260705835286
 20
-4.0627793095933
 30
0.0
 10
3.497804879612785
 20
-4.056834925940873
 30
0.0
 10
3.503412820481394
 20
-4.035248477966762
 30
0.0
 10
3.510003876503813
 20
-4.013919111719487
 30
0.0
 10
3.515787373649901
 20
-3.992375711106534
 30
0.0
 10
3.517722580998831
 20
-3.985166841280311
 30
0.0
 10
3.52142297064443
 20
-3.976270466797991
 30
0.0
 10
3.511894593563258
 20
-3.971901039393641
 30
0.0
 10
3.505250870657619
 20
-3.968854536759586
 30
0.0
 10
3.500001497473502
 20
-3.974432416621791
 30
0.0
 10
3.494658093461314
 20
-3.978468527587008
 30
0.0
 10
3.450198826926579
 20
-4.012049798096617
 30
0.0
 10
3.411290265104248
 20
-4.050764045573461
 30
0.0
 10
3.386051044118681
 20
-4.101034224892146
 30
0.0
 10
3.337362314225452
 20
-4.198010550608993
 30
0.0
 10
3.254540153256837
 20
-4.234675358912556
 30
0.0
 10
3.151237548862077
 20
-4.236217127809545
 30
0.0
 10
3.135484379060649
 20
-4.236452084635681
 30
0.0
 10
3.119591004725306
 20
-4.237744948399546
 30
0.0
 10
3.103995354597499
 20
-4.236200053157896
 30
0.0
 10
3.050012520742636
 20
-4.230853282312991
 30
0.0
 10
3.003783502638246
 20
-4.242842573623294
 30
0.0
 10
2.967204067592926
 20
-4.286653484371678
 30
0.0
 10
2.939440924508795
 20
-4.319905045762905
 30
0.0
 10
2.898370856081252
 20
-4.328651596189249
 30
0.0
 10
2.857822646725051
 20
-4.334636862810385
 30
0.0
 10
2.789913390306538
 20
-4.344661126253363
 30
0.0
 10
2.721521474369031
 20
-4.342787243357533
 30
0.0
 10
2.653408043594962
 20
-4.337457787652334
 30
0.0
 10
2.608278296373151
 20
-4.333926701594868
 30
0.0
 10
2.607125877631259
 20
-4.330318899849013
 30
0.0
 10
2.62364091357924
 20
-4.281777589131252
 30
0.0
 10
2.494081342765753
 20
-4.346438332952604
 30
0.0
 10
2.364042359021975
 20
-4.329692428475356
 30
0.0
 10
2.232415913651455
 20
-4.308932537933591
 30
0.0
 10
2.099887157112398
 20
-4.288030759441552
 30
0.0
 10
1.982705025324018
 20
-4.234110211991972
 30
0.0
 10
1.875386871692424
 20
-4.155060106108218
 30
0.0
 10
1.861763464073457
 20
-4.171155490406666
 30
0.0
 10
1.887327464172308
 20
-4.186951948057311
 30
0.0
 10
1.869968435408231
 20
-4.196243925384048
 30
0.0
 10
1.853113830331785
 20
-4.205266075117202
 30
0.0
 10
1.836725050610741
 20
-4.196120314525666
 30
0.0
 10
1.821494822076905
 20
-4.188769797237202
 30
0.0
 10
1.74539237823813
 20
-4.152040538135907
 30
0.0
 10
1.680954206108279
 20
-4.099096853150741
 30
0.0
 10
1.618967809661601
 20
-4.042679558752399
 30
0.0
 10
1.580537819061381
 20
-4.007702014616876
 30
0.0
 10
1.541434822649573
 20
-3.973463971239148
 30
0.0
 10
1.497512926665498
 20
-3.934331274552985
 30
0.0
 10
1.494912409122586
 20
-3.971028308255427
 30
0.0
 10
1.502176711444652
 20
-3.996776642445613
 30
0.0
 10
1.521469143897282
 20
-4.019278387943055
 30
0.0
 10
1.537532783772955
 20
-4.038014812021022
 30
0.0
 10
1.530547327346388
 20
-4.045916768411163
 30
0.0
 10
1.508506837931375
 20
-4.049226124485307
 30
0.0
 10
1.481372030003336
 20
-4.053300232562631
 30
0.0
 10
1.46028056656083
 20
-4.042645890425218
 30
0.0
 10
1.439879003215538
 20
-4.026613754484262
 30
0.0
 10
1.379581193621157
 20
-3.979229431781378
 30
0.0
 10
1.332080474701431
 20
-3.919561941369491
 30
0.0
 10
1.28146158770835
 20
-3.862895260861933
 30
0.0
 10
1.260568286420127
 20
-3.839505633479045
 30
0.0
 10
1.240760247585475
 20
-3.81515020608208
 30
0.0
 10
1.220094027139705
 20
-3.79155351848701
 30
0.0
 10
1.206498456012683
 20
-3.776030014774581
 30
0.0
 10
1.196759712008619
 20
-3.772187256202617
 30
0.0
 10
1.188520230638473
 20
-3.797756426794573
 30
0.0
 10
1.182780382073702
 20
-3.815568655291372
 30
0.0
 10
1.185114799587824
 20
-3.846053642140254
 30
0.0
 10
1.166363284884621
 20
-3.848169456015739
 30
0.0
 10
1.14414741955818
 20
-3.850676062974596
 30
0.0
 10
1.134740849675002
 20
-3.820745641572027
 30
0.0
 10
1.119955704402148
 20
-3.804891707277117
 30
0.0
 10
1.044013365483528
 20
-3.723458124316771
 30
0.0
 10
1.026049148538315
 20
-3.616808888199911
 30
0.0
 10
0.9955428183748659
 20
-3.515667068946211
 30
0.0
 10
0.9921373272021962
 20
-3.504376154936962
 30
0.0
 10
0.98939287756059
 20
-3.492884433404849
 30
0.0
 10
0.9859116326517525
 20
-3.481618530152925
 30
0.0
 10
0.9852433764791613
 20
-3.47945606159548
 30
0.0
 10
0.9825594697044708
 20
-3.477915976114875
 30
0.0
 10
0.980550612889816
 20
-3.475823249092324
 30
0.0
 10
0.9628787091709733
 20
-3.474257190902158
 30
0.0
 10
0.9669776175786006
 20
-3.507805995524803
 30
0.0
 10
0.9462501328017652
 20
-3.498462794243146
 30
0.0
 10
0.9323178483418815
 20
-3.492182448783044
 30
0.0
 10
0.9307216990843017
 20
-3.474836767105823
 30
0.0
 10
0.9225130603067302
 20
-3.463214941537949
 30
0.0
 10
0.8270442038785479
 20
-3.328049113272199
 30
0.0
 10
0.8250890360213436
 20
-3.170228108132278
 30
0.0
 10
0.8131909498045312
 20
-3.014726369759248
 30
0.0
 10
0.8121480433089926
 20
-3.001095747498741
 30
0.0
 10
0.8199708791302353
 20
-2.982089736315225
 30
0.0
 10
0.8041230772806278
 20
-2.975385169932603
 30
0.0
 10
0.7902162244321668
 20
-2.969501870245217
 30
0.0
 10
0.7831121773353086
 20
-2.987777278728825
 30
0.0
 10
0.7733586433160882
 20
-2.995621037010526
 30
0.0
 10
0.7274052245185328
 20
-3.03257635488007
 30
0.0
 10
0.6776710179137176
 20
-3.061852408295029
 30
0.0
 10
0.6130996454644446
 20
-3.080754047664262
 30
0.0
 10
0.629760582507073
 20
-3.045147386786488
 30
0.0
 10
0.6419450148404924
 20
-3.016683461520845
 30
0.0
 10
0.6561295412051954
 20
-2.989254115851963
 30
0.0
 10
0.6963862189211846
 20
-2.911408374129198
 30
0.0
 10
0.6972564700263698
 20
-2.829221342104094
 30
0.0
 10
0.6770583896334933
 20
-2.747504704707353
 30
0.0
 10
0.6499210866419263
 20
-2.637713251711981
 30
0.0
 10
0.6567890496249144
 20
-2.529120631652454
 30
0.0
 10
0.6760333093147639
 20
-2.419862220422841
 30
0.0
 10
0.6762610815603693
 20
-2.418568875682859
 30
0.0
 10
0.6766469296081948
 20
-2.417286352905194
 30
0.0
 10
0.6767190760235987
 20
-2.415985432791608
 30
0.0
 10
0.6778449959883421
 20
-2.395681267107092
 30
0.0
 10
0.6902383673468522
 20
-2.366885227842582
 30
0.0
 10
0.6734948376891022
 20
-2.357518819463975
 30
0.0
 10
0.65603336101516
 20
-2.34775043530759
 30
0.0
 10
0.638875996512613
 20
-2.373674085287196
 30
0.0
 10
0.6230860320393453
 20
-2.386339989729852
 30
0.0
 10
0.6168933595044513
 20
-2.391307510917815
 30
0.0
 10
0.6116946541466556
 20
-2.39747771285042
 30
0.0
 10
0.6025605421951038
 20
-2.394805289380176
 30
0.0
 10
0.6013020682225816
 20
-2.393548498824
 30
0.0
 10
0.6000417079218955
 20
-2.392293511928213
 30
0.0
 10
0.5987794462625465
 20
-2.391040328692813
 30
0.0
  0
SPLINE
  5
4D
330
44
100
AcDbEntity
  8
Layer 1
370
     0
100
AcDbSpline
210
0.0
220
0.0
230
1.0
 70
    11
 71
     3
 72
   188
 73
   184
 74
     0
 42
0.0000000001
 43
0.0000000001
 12
1.0
 22
0.0
 32
0.0
 13
1.0
 23
0.0
 33
0.0
 40
0.0
 40
0.0
 40
0.0
 40
0.0
 40
1.0
 40
1.0
 40
1.0
 40
2.0
 40
2.0
 40
2.0
 40
3.0
 40
3.0
 40
3.0
 40
4.0
 40
4.0
 40
4.0
 40
5.0
 40
5.0
 40
5.0
 40
6.0
 40
6.0
 40
6.0
 40
7.0
 40
7.0
 40
7.0
 40
8.0
 40
8.0
 40
8.0
 40
9.0
 40
9.0
 40
9.0
 40
10.0
 40
10.0
 40
10.0
 40
11.0
 40
11.0
 40
11.0
 40
12.0
 40
12.0
 40
12.0
 40
13.0
 40
13.0
 40
13.0
 40
14.0
 40
14.0
 40
14.0
 40
15.0
 40
15.0
 40
15.0
 40
16.0
 40
16.0
 40
16.0
 40
17.0
 40
17.0
 40
17.0
 40
18.0
 40
18.0
 40
18.0
 40
19.0
 40
19.0
 40
19.0
 40
20.0
 40
20.0
 40
20.0
 40
21.0
 40
21.0
 40
21.0
 40
22.0
 40
22.0
 40
22.0
 40
23.0
 40
23.0
 40
23.0
 40
24.0
 40
24.0
 40
24.0
 40
25.0
 40
25.0
 40
25.0
 40
26.0
 40
26.0
 40
26.0
 40
27.0
 40
27.0
 40
27.0
 40
28.0
 40
28.0
 40
28.0
 40
29.0
 40
29.0
 40
29.0
 40
30.0
 40
30.0
 40
30.0
 40
31.0
 40
31.0
 40
31.0
 40
32.0
 40
32.0
 40
32.0
 40
33.0
 40
33.0
 40
33.0
 40
34.0
 40
34.0
 40
34.0
 40
35.0
 40
35.0
 40
35.0
 40
36.0
 40
36.0
 40
36.0
 40
37.0
 40
37.0
 40
37.0
 40
38.0
 40
38.0
 40
38.0
 40
39.0
 40
39.0
 40
39.0
 40
40.0
 40
40.0
 40
40.0
 40
41.0
 40
41.0
 40
41.0
 40
42.0
 40
42.0
 40
42.0
 40
43.0
 40
43.0
 40
43.0
 40
44.0
 40
44.0
 40
44.0
 40
45.0
 40
45.0
 40
45.0
 40
46.0
 40
46.0
 40
46.0
 40
47.0
 40
47.0
 40
47.0
 40
48.0
 40
48.0
 40
48.0
 40
49.0
 40
49.0
 40
49.0
 40
50.0
 40
50.0
 40
50.0
 40
51.0
 40
51.0
 40
51.0
 40
52.0
 40
52.0
 40
52.0
 40
53.0
 40
53.0
 40
53.0
 40
54.0
 40
54.0
 40
54.0
 40
55.0
 40
55.0
 40
55.0
 40
56.0
 40
56.0
 40
56.0
 40
57.0
 40
57.0
 40
57.0
 40
58.0
 40
58.0
 40
58.0
 40
59.0
 40
59.0
 40
59.0
 40
60.0
 40
60.0
 40
60.0
 40
61.0
 40
61.0
 40
61.0
 40
61.0
 10
2.958086925079492
 20
-2.240004333188671
 30
0.0
 10
2.953990692101443
 20
-2.25824294700044
 30
0.0
 10
2.964700586978728
 20
-2.269704848014183
 30
0.0
 10
2.969400685453618
 20
-2.282603424646494
 30
0.0
 10
2.976105732812357
 20
-2.30100196301238
 30
0.0
 10
2.984724103107358
 20
-2.318844973979733
 30
0.0
 10
2.989791186348561
 20
-2.337661480578807
 30
0.0
 10
2.995553039570041
 20
-2.359057822748367
 30
0.0
 10
2.988676524230717
 20
-2.370713917863554
 30
0.0
 10
2.963468326203787
 20
-2.364328719613076
 30
0.0
 10
2.877732412005419
 20
-2.342612528335267
 30
0.0
 10
2.795503775547432
 20
-2.31396967995944
 30
0.0
 10
2.72682952663768
 20
-2.254957158755309
 30
0.0
 10
2.701340198078747
 20
-2.233053867773581
 30
0.0
 10
2.686152175197928
 20
-2.186368884323921
 30
0.0
 10
2.6566216854247
 20
-2.187771290395163
 30
0.0
 10
2.626423119844907
 20
-2.189205200401135
 30
0.0
 10
2.598081843485438
 20
-2.223013371387133
 30
0.0
 10
2.568313992005541
 20
-2.241670795140269
 30
0.0
 10
2.507369269553136
 20
-2.279869436235104
 30
0.0
 10
2.448680445266089
 20
-2.323612769841083
 30
0.0
 10
2.373794269746845
 20
-2.331004530830342
 30
0.0
 10
2.350810706438589
 20
-2.333273054618404
 30
0.0
 10
2.320295177607174
 20
-2.339686870946985
 30
0.0
 10
2.310353161077741
 20
-2.314435385070813
 30
0.0
 10
2.302720791793149
 20
-2.29505000398635
 30
0.0
 10
2.331499996894068
 20
-2.284839843279693
 30
0.0
 10
2.34531098519306
 20
-2.272494389165419
 30
0.0
 10
2.366138212389185
 20
-2.253877247160883
 30
0.0
 10
2.387658045173099
 20
-2.236675136850295
 30
0.0
 10
2.390226938537252
 20
-2.206498936659273
 30
0.0
 10
2.390954895868579
 20
-2.197948263750732
 30
0.0
 10
2.392380148304697
 20
-2.187035998178266
 30
0.0
 10
2.381728211047781
 20
-2.182384718777775
 30
0.0
 10
2.373358385153829
 20
-2.17872990161791
 30
0.0
 10
2.367252393530925
 20
-2.185004715852831
 30
0.0
 10
2.360745147594407
 20
-2.189462161883966
 30
0.0
 10
2.328344673416786
 20
-2.211656323163766
 30
0.0
 10
2.295533565891535
 20
-2.233254314564356
 30
0.0
 10
2.263240950604919
 20
-2.255602388197
 30
0.0
 10
2.155740747518469
 20
-2.329998449067666
 30
0.0
 10
2.037129274997091
 20
-2.362631956167017
 30
0.0
 10
1.906452997917325
 20
-2.354099079374262
 30
0.0
 10
1.881923577415225
 20
-2.352497308708482
 30
0.0
 10
1.876569591928791
 20
-2.345593978951443
 30
0.0
 10
1.885809984568507
 20
-2.32430717908926
 30
0.0
 10
1.895777973807488
 20
-2.301344297753429
 30
0.0
 10
1.903806787644675
 20
-2.27843985501406
 30
0.0
 10
1.900018259128274
 20
-2.252201285931265
 30
0.0
 10
1.896827583907452
 20
-2.230103199627971
 30
0.0
 10
1.89055673772537
 20
-2.223667378642681
 30
0.0
 10
1.870263514247199
 20
-2.237720418165332
 30
0.0
 10
1.847647296437332
 20
-2.253381962019198
 30
0.0
 10
1.823723064116368
 20
-2.267150263689081
 30
0.0
 10
1.800424822192983
 20
-2.281832660442028
 30
0.0
 10
1.74090318778422
 20
-2.319343625954136
 30
0.0
 10
1.676180879021748
 20
-2.336021953288966
 30
0.0
 10
1.605822131556566
 20
-2.331791768466322
 30
0.0
 10
1.56542627138088
 20
-2.329363079636083
 30
0.0
 10
1.564034206295837
 20
-2.327193035705048
 30
0.0
 10
1.58165212044715
 20
-2.292653420310962
 30
0.0
 10
1.595332283246231
 20
-2.265833591608132
 30
0.0
 10
1.607446387855147
 20
-2.238213899646628
 30
0.0
 10
1.620201032388738
 20
-2.210923796559453
 30
0.0
 10
1.623605501487191
 20
-2.203639653973167
 30
0.0
 10
1.627095704575923
 20
-2.195620459658016
 30
0.0
 10
1.618926565960793
 20
-2.189725496300146
 30
0.0
 10
1.613032083579027
 20
-2.185471984136535
 30
0.0
 10
1.606689090981553
 20
-2.189222876272904
 30
0.0
 10
1.600531274183595
 20
-2.191882193144352
 30
0.0
 10
1.56569525726627
 20
-2.206926644658539
 30
0.0
 10
1.530976959250059
 20
-2.222300083826932
 30
0.0
 10
1.49570674115609
 20
-2.236269193019666
 30
0.0
 10
1.443222628837008
 20
-2.257056018223175
 30
0.0
 10
1.389463989967958
 20
-2.273996116801855
 30
0.0
 10
1.334899295272913
 20
-2.288669495252874
 30
0.0
 10
1.215739209384474
 20
-2.320713806626499
 30
0.0
 10
1.120732781417953
 20
-2.271108336281663
 30
0.0
 10
1.029198940790416
 20
-2.203083886086574
 30
0.0
 10
0.9808698006559223
 20
-2.167167476598706
 30
0.0
 10
0.9449657462417033
 20
-2.128243884273173
 30
0.0
 10
0.9554129981059355
 20
-2.062777866212008
 30
0.0
 10
0.9570357212931968
 20
-2.052609309938235
 30
0.0
 10
0.9570990297727096
 20
-2.042417546567511
 30
0.0
 10
0.9423651685767834
 20
-2.038628056098901
 30
0.0
 10
0.9097474435058075
 20
-2.030238991160837
 30
0.0
 10
0.8606455250794118
 20
-2.053072970901161
 30
0.0
 10
0.8487131993762835
 20
-2.084593258810981
 30
0.0
 10
0.8413149752706456
 20
-2.104136760789187
 30
0.0
 10
0.83408049346695
 20
-2.124023198728562
 30
0.0
 10
0.8298883658784335
 20
-2.144396865459902
 30
0.0
 10
0.8272505125655698
 20
-2.157216682255403
 30
0.0
 10
0.8148332126459586
 20
-2.173495318448949
 30
0.0
 10
0.8309553813011108
 20
-2.18421182674764
 30
0.0
 10
0.8479296893050963
 20
-2.195494924895229
 30
0.0
 10
0.8634831638409094
 20
-2.184256677769213
 30
0.0
 10
0.8775161226112687
 20
-2.174180589151168
 30
0.0
 10
0.8828039738835969
 20
-2.170383643552971
 30
0.0
 10
0.88808972088547
 20
-2.165997141496986
 30
0.0
 10
0.8918593710898347
 20
-2.160782759324333
 30
0.0
 10
0.9030809944793089
 20
-2.14526069854023
 30
0.0
 10
0.9101122638796444
 20
-2.148072965812313
 30
0.0
 10
0.9206144372026048
 20
-2.162950638862918
 30
0.0
 10
0.9769873314944814
 20
-2.242811309723632
 30
0.0
 10
1.051998350373373
 20
-2.301375200468025
 30
0.0
 10
1.13673659989086
 20
-2.348442920651349
 30
0.0
 10
1.145644878531711
 20
-2.353391082551196
 30
0.0
 10
1.153683492256997
 20
-2.35812737447783
 30
0.0
 10
1.160457920418531
 20
-2.367528292891797
 30
0.0
 10
1.248108600481474
 20
-2.489160896557829
 30
0.0
 10
1.294937516029854
 20
-2.628447968558956
 30
0.0
 10
1.335459151456373
 20
-2.770301288555705
 30
0.0
 10
1.414750226367548
 20
-3.047874761776459
 30
0.0
 10
1.550944561906767
 20
-3.292959261216715
 30
0.0
 10
1.748451266006845
 20
-3.504087328787313
 30
0.0
 10
1.839779369106471
 20
-3.601714415171045
 30
0.0
 10
1.951558576089976
 20
-3.663013617011099
 30
0.0
 10
2.078095933562584
 20
-3.701442886147156
 30
0.0
 10
2.215985168765453
 20
-3.74331955149882
 30
0.0
 10
2.357868068792502
 20
-3.758272617553505
 30
0.0
 10
2.500694283200826
 20
-3.767376533224099
 30
0.0
 10
2.693536841789662
 20
-3.779668358502931
 30
0.0
 10
2.883037818905475
 20
-3.769891316776718
 30
0.0
 10
3.063654445941539
 20
-3.689579851063804
 30
0.0
 10
3.139485378770384
 20
-3.655861021388874
 30
0.0
 10
3.212139223953297
 20
-3.616243500791269
 30
0.0
 10
3.279073782299823
 20
-3.568855570767608
 30
0.0
 10
3.332915930644706
 20
-3.53073653121775
 30
0.0
 10
3.376087143176594
 20
-3.477998944492558
 30
0.0
 10
3.415702499381723
 20
-3.424183730809444
 30
0.0
 10
3.511452095548823
 20
-3.294113844351083
 30
0.0
 10
3.605525249510214
 20
-3.162600548608705
 30
0.0
 10
3.659781518279437
 20
-3.00859151957017
 30
0.0
 10
3.712551089915425
 20
-2.858802815344183
 30
0.0
 10
3.767620689274205
 20
-2.710230740169815
 30
0.0
 10
3.84438038695723
 20
-2.570702939629301
 30
0.0
 10
3.850800215487096
 20
-2.559033978403376
 30
0.0
 10
3.852104622677441
 20
-2.540271581615848
 30
0.0
 10
3.871853982427562
 20
-2.54189343303392
 30
0.0
 10
3.916906532984891
 20
-2.545593822679494
 30
0.0
 10
3.953853674260699
 20
-2.51926951960642
 30
0.0
 10
3.995192127353524
 20
-2.509143529717726
 30
0.0
 10
4.044923132461134
 20
-2.49696184796638
 30
0.0
 10
4.086208437694621
 20
-2.466962406493091
 30
0.0
 10
4.116260786539215
 20
-2.42644329619111
 30
0.0
 10
4.13595122671677
 20
-2.399894617766146
 30
0.0
 10
4.148873852154186
 20
-2.396921824719811
 30
0.0
 10
4.168906506828787
 20
-2.42264178131994
 30
0.0
 10
4.17670168652411
 20
-2.432649691575433
 30
0.0
 10
4.191683851633014
 20
-2.441476444766888
 30
0.0
 10
4.193371115801053
 20
-2.421863561985889
 30
0.0
 10
4.197520977614557
 20
-2.373632961830417
 30
0.0
 10
4.199044950395723
 20
-2.324353954015237
 30
0.0
 10
4.170347270744211
 20
-2.281098209933311
 30
0.0
 10
4.158375535061674
 20
-2.263053549734928
 30
0.0
 10
4.140442341075085
 20
-2.260975131751429
 30
0.0
 10
4.121403142540481
 20
-2.267587110234305
 30
0.0
 10
4.102898308455906
 20
-2.274013672429608
 30
0.0
 10
4.097130443033166
 20
-2.290001799057159
 30
0.0
 10
4.103885992882675
 20
-2.305720939799319
 30
0.0
 10
4.119793556013039
 20
-2.342734936753383
 30
0.0
 10
4.098469961478991
 20
-2.360724765676057
 30
0.0
 10
4.07271537459946
 20
-2.379914269242729
 30
0.0
 10
3.931915151779448
 20
-2.484823694552334
 30
0.0
 10
3.776104145772403
 20
-2.494585104555249
 30
0.0
 10
3.612432306832034
 20
-2.453155266002922
 30
0.0
 10
3.540723339202739
 20
-2.435003468377684
 30
0.0
 10
3.476353104947394
 20
-2.401168001997853
 30
0.0
 10
3.418153794088791
 20
-2.346866882207059
 30
0.0
 10
3.410018323800841
 20
-2.387206347934719
 30
0.0
 10
3.442914203364176
 20
-2.404034258837467
 30
0.0
 10
3.446653552074091
 20
-2.432048471447148
 30
0.0
 10
3.449002639359327
 20
-2.449645102405914
 30
0.0
 10
3.463084417204097
 20
-2.468438041175962
 30
0.0
 10
3.447312729822746
 20
-2.483765547126545
 30
0.0
 10
3.433621504573289
 20
-2.497071029541682
 30
0.0
 10
3.414796099916328
 20
-2.488770584450524
 30
0.0
 10
3.398693500976353
 20
-2.484086598675074
 30
0.0
 10
3.259638740432769
 20
-2.443637229907962
 30
0.0
 10
3.136185401730245
 20
-2.373911086261766
 30
0.0
 10
3.023006193556006
 20
-2.284487167552445
 30
0.0
 10
3.003215469861036
 20
-2.268850393967859
 30
0.0
 10
2.985510980011263
 20
-2.249108609591354
 30
0.0
 10
2.958086925079492
 20
-2.240004333188671
 30
0.0
  0
HATCH
  5
4E
330
44
100
AcDbEntity
  8
Layer 1
 62
   152
100
AcDbHatch
 10
0.0
 20
0.0
 30
0.0
210
0.0
220
0.0
230
1.0
  2
SOLID
 70
     1
 71
     0
 91
        2
 92
        1
 93
        1
 72
     4
 94
        3
 73
     0
 74
     1
 95
      323
 96
      319
 40
0.0
 40
0.0
 40
0.0
 40
0.0
 40
1.0
 40
1.0
 40
1.0
 40
2.0
 40
2.0
 40
2.0
 40
3.0
 40
3.0
 40
3.0
 40
4.0
 40
4.0
 40
4.0
 40
5.0
 40
5.0
 40
5.0
 40
6.0
 40
6.0
 40
6.0
 40
7.0
 40
7.0
 40
7.0
 40
8.0
 40
8.0
 40
8.0
 40
9.0
 40
9.0
 40
9.0
 40
10.0
 40
10.0
 40
10.0
 40
11.0
 40
11.0
 40
11.0
 40
12.0
 40
12.0
 40
12.0
 40
13.0
 40
13.0
 40
13.0
 40
14.0
 40
14.0
 40
14.0
 40
15.0
 40
15.0
 40
15.0
 40
16.0
 40
16.0
 40
16.0
 40
17.0
 40
17.0
 40
17.0
 40
18.0
 40
18.0
 40
18.0
 40
19.0
 40
19.0
 40
19.0
 40
20.0
 40
20.0
 40
20.0
 40
21.0
 40
21.0
 40
21.0
 40
22.0
 40
22.0
 40
22.0
 40
23.0
 40
23.0
 40
23.0
 40
24.0
 40
24.0
 40
24.0
 40
25.0
 40
25.0
 40
25.0
 40
26.0
 40
26.0
 40
26.0
 40
27.0
 40
27.0
 40
27.0
 40
28.0
 40
28.0
 40
28.0
 40
29.0
 40
29.0
 40
29.0
 40
30.0
 40
30.0
 40
30.0
 40
31.0
 40
31.0
 40
31.0
 40
32.0
 40
32.0
 40
32.0
 40
33.0
 40
33.0
 40
33.0
 40
34.0
 40
34.0
 40
34.0
 40
35.0
 40
35.0
 40
35.0
 40
36.0
 40
36.0
 40
36.0
 40
37.0
 40
37.0
 40
37.0
 40
38.0
 40
38.0
 40
38.0
 40
39.0
 40
39.0
 40
39.0
 40
40.0
 40
40.0
 40
40.0
 40
41.0
 40
41.0
 40
41.0
 40
42.0
 40
42.0
 40
42.0
 40
43.0
 40
43.0
 40
43.0
 40
44.0
 40
44.0
 40
44.0
 40
45.0
 40
45.0
 40
45.0
 40
46.0
 40
46.0
 40
46.0
 40
47.0
 40
47.0
 40
47.0
 40
48.0
 40
48.0
 40
48.0
 40
49.0
 40
49.0
 40
49.0
 40
50.0
 40
50.0
 40
50.0
 40
51.0
 40
51.0
 40
51.0
 40
52.0
 40
52.0
 40
52.0
 40
53.0
 40
53.0
 40
53.0
 40
54.0
 40
54.0
 40
54.0
 40
55.0
 40
55.0
 40
55.0
 40
56.0
 40
56.0
 40
56.0
 40
57.0
 40
57.0
 40
57.0
 40
58.0
 40
58.0
 40
58.0
 40
59.0
 40
59.0
 40
59.0
 40
60.0
 40
60.0
 40
60.0
 40
61.0
 40
61.0
 40
61.0
 40
62.0
 40
62.0
 40
62.0
 40
63.0
 40
63.0
 40
63.0
 40
64.0
 40
64.0
 40
64.0
 40
65.0
 40
65.0
 40
65.0
 40
66.0
 40
66.0
 40
66.0
 40
67.0
 40
67.0
 40
67.0
 40
68.0
 40
68.0
 40
68.0
 40
69.0
 40
69.0
 40
69.0
 40
70.0
 40
70.0
 40
70.0
 40
71.0
 40
71.0
 40
71.0
 40
72.0
 40
72.0
 40
72.0
 40
73.0
 40
73.0
 40
73.0
 40
74.0
 40
74.0
 40
74.0
 40
75.0
 40
75.0
 40
75.0
 40
76.0
 40
76.0
 40
76.0
 40
77.0
 40
77.0
 40
77.0
 40
78.0
 40
78.0
 40
78.0
 40
79.0
 40
79.0
 40
79.0
 40
80.0
 40
80.0
 40
80.0
 40
81.0
 40
81.0
 40
81.0
 40
82.0
 40
82.0
 40
82.0
 40
83.0
 40
83.0
 40
83.0
 40
84.0
 40
84.0
 40
84.0
 40
85.0
 40
85.0
 40
85.0
 40
86.0
 40
86.0
 40
86.0
 40
87.0
 40
87.0
 40
87.0
 40
88.0
 40
88.0
 40
88.0
 40
89.0
 40
89.0
 40
89.0
 40
90.0
 40
90.0
 40
90.0
 40
91.0
 40
91.0
 40
91.0
 40
92.0
 40
92.0
 40
92.0
 40
93.0
 40
93.0
 40
93.0
 40
94.0
 40
94.0
 40
94.0
 40
95.0
 40
95.0
 40
95.0
 40
96.0
 40
96.0
 40
96.0
 40
97.0
 40
97.0
 40
97.0
 40
98.0
 40
98.0
 40
98.0
 40
99.0
 40
99.0
 40
99.0
 40
100.0
 40
100.0
 40
100.0
 40
101.0
 40
101.0
 40
101.0
 40
102.0
 40
102.0
 40
102.0
 40
103.0
 40
103.0
 40
103.0
 40
104.0
 40
104.0
 40
104.0
 40
105.0
 40
105.0
 40
105.0
 40
106.0
 40
106.0
 40
106.0
 40
106.0
 10
0.5987794462625465
 20
-2.391040328692813
 10
0.617354194732785
 20
-2.22424430947779
 10
0.6521678913528477
 20
-2.065125270080898
 10
0.7919363152192065
 20
-1.950819495630273
 10
0.8297764186905472
 20
-1.919872891966873
 10
0.8274615107695934
 20
-1.916533474886301
 10
0.7858033588735477
 20
-1.892626677949061
 10
0.7497252211711863
 20
-1.87192209965911
 10
0.7182037759126211
 20
-1.847856941340069
 10
0.706508526336582
 20
-1.804868499727174
 10
0.6955727079655895
 20
-1.764671523169921
 10
0.700612255324927
 20
-1.75770819164408
 10
0.7425609318174666
 20
-1.763746606124565
 10
0.8466409739601077
 20
-1.778728891477486
 10
0.9467539552692743
 20
-1.766626691027113
 10
1.041833341298356
 20
-1.720682290531487
 10
1.073742678753181
 20
-1.705262918145283
 10
1.103136270703203
 20
-1.685426261232528
 10
1.129877580057281
 20
-1.662020280662154
 10
1.152270324345459
 20
-1.642420624723968
 10
1.146395020885784
 20
-1.626713147652304
 10
1.119981196135579
 20
-1.621068532355846
 10
1.090658969014789
 20
-1.614802736422853
 10
1.060194183162202
 20
-1.614071171770749
 10
1.030493968946757
 20
-1.609275599539463
 10
1.021307926606634
 20
-1.607792389482976
 10
1.006866739369166
 20
-1.611959205704099
 10
1.003931342214805
 20
-1.598424898908143
 10
1.001249118856473
 20
-1.586058402089369
 10
1.01389981242989
 20
-1.581170001470279
 10
1.021847762159824
 20
-1.575021443462295
 10
1.130161776811923
 20
-1.491229033450635
 10
1.251957551620762
 20
-1.458772766045096
 10
1.387683777168099
 20
-1.479033523636341
 10
1.401315181014765
 20
-1.481068413282552
 10
1.41535661698894
 20
-1.489136667160159
 10
1.434424734211701
 20
-1.475653945051211
 10
1.409089438249642
 20
-1.457601348747138
 10
1.385642394344498
 20
-1.440558201038458
 10
1.361829628235329
 20
-1.424042263260288
 10
1.345344593171742
 20
-1.41260873983659
 10
1.328569529518265
 20
-1.400685823228476
 10
1.32773130841541
 20
-1.378818004234315
 10
1.326991867779624
 20
-1.359527916540186
 10
1.337484241214497
 20
-1.342446290743295
 10
1.351242502508234
 20
-1.330658949274102
 10
1.366878073652565
 20
-1.317263103473692
 10
1.376727141550166
 20
-1.33706188351837
 10
1.388060561822486
 20
-1.343342349222502
 10
1.457078768767625
 20
-1.381589629025724
 10
1.5317274022142
 20
-1.400485196071663
 10
1.609439071848353
 20
-1.407731521911892
 10
1.640799074471955
 20
-1.410655676249853
 10
1.663174924474535
 20
-1.418879465774643
 10
1.681842087993737
 20
-1.448791670207331
 10
1.853085933717832
 20
-1.723193466763316
 10
2.220221365789371
 20
-1.786438337182542
 10
2.47280247900926
 20
-1.598995697297937
 10
2.529296489095991
 20
-1.557070934336012
 10
2.576887150546908
 20
-1.507249505721082
 10
2.61323186925415
 20
-1.446835059421826
 10
2.618454788752615
 20
-1.438153440769333
 10
2.621202364738893
 20
-1.424588171136772
 10
2.632900665507097
 20
-1.424401612530965
 10
2.645968064751413
 20
-1.42419316951249
 10
2.64574657525615
 20
-1.438664838610457
 10
2.649841605793957
 20
-1.447679172481937
 10
2.737299895415845
 20
-1.640202002206555
 10
2.884574778041446
 20
-1.756264782360088
 10
3.0957593603041
 20
-1.775131190229811
 10
3.29607556606369
 20
-1.79302674783638
 10
3.455886369340179
 20
-1.710245109104385
 10
3.573256562784688
 20
-1.547774387736303
 10
3.589150418096147
 20
-1.525772857385606
 10
3.600869400836725
 20
-1.520388931136785
 10
3.623136429996091
 20
-1.535387569677204
 10
3.734207279424431
 20
-1.610201959513132
 10
3.857233270859776
 20
-1.621011055711582
 10
3.985696697135381
 20
-1.602178556657097
 10
4.002549859283514
 20
-1.5997079026619
 10
4.019551402559298
 20
-1.598085930999812
 10
4.0365356306954
 20
-1.596702523484611
 10
4.077271180243593
 20
-1.593384389596597
 10
4.088547664969761
 20
-1.607915278877196
 10
4.07351307346567
 20
-1.64643641444886
 10
4.058421005317314
 20
-1.685104608463891
 10
4.026911539369823
 20
-1.71242837987826
 10
4.000269311092881
 20
-1.746342004874767
 10
4.033703883891172
 20
-1.762362837877302
 10
4.06940168974039
 20
-1.765786305531795
 10
4.103339844518132
 20
-1.769257149332412
 10
4.199592060712474
 20
-1.77910068600483
 10
4.239903148850064
 20
-1.847521340264456
 10
4.274513467731241
 20
-1.923553441348228
 10
4.284075272651535
 20
-1.944558749946345
 10
4.272636939466818
 20
-1.947385686989567
 10
4.254177076647844
 20
-1.94653135318726
 10
4.207001978549619
 20
-1.944348082413399
 10
4.205860862746123
 20
-1.945638661540784
 10
4.229449854723549
 20
-1.98626190316899
 10
4.253898591484433
 20
-2.028365468997069
 10
4.274404286155939
 20
-2.072022106660547
 10
4.292602257487033
 20
-2.117140791431994
 10
4.316458672177532
 20
-2.176288707409008
 10
4.374353525163163
 20
-2.194943966769668
 10
4.424092466376477
 20
-2.223012890411029
 10
4.433208165961585
 20
-2.228157050072696
 10
4.451442931964544
 20
-2.224253448023748
 10
4.448629702740239
 20
-2.241902144645628
 10
4.446603590907923
 20
-2.254613741818035
 10
4.433385886631514
 20
-2.258240061143826
 10
4.422094010670055
 20
-2.262520988945286
 10
4.396365156012027
 20
-2.272275545038724
 10
4.370470605086616
 20
-2.269826053992043
 10
4.344448355005978
 20
-2.265032405665174
 10
4.335472859954785
 20
-2.263379170556403
 10
4.32493587598641
 20
-2.258273729471006
 10
4.318323176039383
 20
-2.2659229329192
 10
4.310734816068159
 20
-2.27470038606014
 10
4.320240827760573
 20
-2.282519734804636
 10
4.3248464144313
 20
-2.290062402046096
 10
4.386489033208641
 20
-2.391014235739249
 10
4.410404126983646
 20
-2.503341514991689
 10
4.423706242566064
 20
-2.618815219663525
 10
4.424874533519364
 20
-2.628956841275542
 10
4.430965374395024
 20
-2.642020873687165
 10
4.4222479230229
 20
-2.648844000679067
 10
4.410384406963455
 20
-2.658129965804518
 10
4.401566431585858
 20
-2.643246881772761
 10
4.391318514255166
 20
-2.639135498047481
 10
4.363020766232972
 20
-2.627783019097074
 10
4.343924331542161
 20
-2.603872494595028
 10
4.318245498398811
 20
-2.586363521530959
 10
4.334785304616085
 20
-2.665721933096493
 10
4.351905168013117
 20
-2.744089774378658
 10
4.394117795172481
 20
-2.81412903346768
 10
4.408573291449001
 20
-2.838113387801463
 10
4.435712608527991
 20
-2.844808575150106
 10
4.458121525637631
 20
-2.857683583953379
 10
4.470895288971304
 20
-2.86502279830342
 10
4.486916121973814
 20
-2.872472877645123
 10
4.486099424551563
 20
-2.88741632417777
 10
4.485173786042044
 20
-2.904342113717398
 10
4.472851899756784
 20
-2.917631964409186
 10
4.455827269628066
 20
-2.925374958197381
 10
4.421323486953648
 20
-2.941067765497918
 10
4.38858584852806
 20
-2.929721298748821
 10
4.356713245623066
 20
-2.918466457947261
 10
4.28297455884068
 20
-2.892428095167184
 10
4.284170024943756
 20
-2.891764348145544
 10
4.278176822216917
 20
-2.968126278591676
 10
4.271826494733887
 20
-3.049043293217791
 10
4.273392552924053
 20
-3.130928031762399
 10
4.249127549034382
 20
-3.209834085303429
 10
4.238359696536741
 20
-3.244849626551058
 10
4.219778868227952
 20
-3.274106200433835
 10
4.19199841000414
 20
-3.297547051771668
 10
4.145981502361034
 20
-3.3363750500968
 10
4.127529094671647
 20
-3.333410794376277
 10
4.100222397908914
 20
-3.281187611592865
 10
4.067133406440385
 20
-3.313100856978533
 10
4.059707375903801
 20
-3.356271829022388
 10
4.046869402260427
 20
-3.395895361821254
 10
4.038298408111561
 20
-3.422348566489871
 10
4.031438245959736
 20
-3.45028894926779
 10
4.014629574101087
 20
-3.471464884138337
 10
3.95301076364083
 20
-3.549094667591008
 10
3.93714312152699
 20
-3.64195119250078
 10
3.921166297837847
 20
-3.735203801231061
 10
3.91562689606384
 20
-3.76753573631408
 10
3.909749608577739
 20
-3.799810675728925
 10
3.90435137328988
 20
-3.832165697664853
 10
3.902220408667163
 20
-3.844936575141901
 10
3.903368017648038
 20
-3.860564210180529
 10
3.884190057507845
 20
-3.859320165491074
 10
3.869167490406324
 20
-3.858345467419111
 10
3.857121684403965
 20
-3.852380882770376
 10
3.852173402260102
 20
-3.835359138498259
 10
3.844244511208242
 20
-3.808084667134431
 10
3.834429953346014
 20
-3.781358268039538
 10
3.82520026242456
 20
-3.753765150007691
 10
3.802701643271803
 20
-3.761504055499042
 10
3.805692593166011
 20
-3.779160928714671
 10
3.803278333618866
 20
-3.79125026305428
 10
3.782831799007959
 20
-3.893636607973551
 10
3.724673852094181
 20
-3.965909520083162
 10
3.632422154633483
 20
-4.01277799591599
 10
3.593865426830234
 20
-4.032366228671738
 10
3.556371175237675
 20
-4.054038290392125
 10
3.518147282897441
 20
-4.074297244323008
 10
3.511763287087231
 20
-4.077680430228914
 10
3.503061226950371
 20
-4.083651508055001
 10
3.497317169844715
 20
-4.075236109675339
 10
3.494484701576312
 20
-4.071086247861836
 10
3.496260705835286
 20
-4.0627793095933
 10
3.497804879612785
 20
-4.056834925940873
 10
3.503412820481394
 20
-4.035248477966762
 10
3.510003876503813
 20
-4.013919111719487
 10
3.515787373649901
 20
-3.992375711106534
 10
3.517722580998831
 20
-3.985166841280311
 10
3.52142297064443
 20
-3.976270466797991
 10
3.511894593563258
 20
-3.971901039393641
 10
3.505250870657619
 20
-3.968854536759586
 10
3.500001497473502
 20
-3.974432416621791
 10
3.494658093461314
 20
-3.978468527587008
 10
3.450198826926579
 20
-4.012049798096617
 10
3.411290265104248
 20
-4.050764045573461
 10
3.386051044118681
 20
-4.101034224892146
 10
3.337362314225452
 20
-4.198010550608993
 10
3.254540153256837
 20
-4.234675358912556
 10
3.151237548862077
 20
-4.236217127809545
 10
3.135484379060649
 20
-4.236452084635681
 10
3.119591004725306
 20
-4.237744948399546
 10
3.103995354597499
 20
-4.236200053157896
 10
3.050012520742636
 20
-4.230853282312991
 10
3.003783502638246
 20
-4.242842573623294
 10
2.967204067592926
 20
-4.286653484371678
 10
2.939440924508795
 20
-4.319905045762905
 10
2.898370856081252
 20
-4.328651596189249
 10
2.857822646725051
 20
-4.334636862810385
 10
2.789913390306538
 20
-4.344661126253363
 10
2.721521474369031
 20
-4.342787243357533
 10
2.653408043594962
 20
-4.337457787652334
 10
2.608278296373151
 20
-4.333926701594868
 10
2.607125877631259
 20
-4.330318899849013
 10
2.62364091357924
 20
-4.281777589131252
 10
2.494081342765753
 20
-4.346438332952604
 10
2.364042359021975
 20
-4.329692428475356
 10
2.232415913651455
 20
-4.308932537933591
 10
2.099887157112398
 20
-4.288030759441552
 10
1.982705025324018
 20
-4.234110211991972
 10
1.875386871692424
 20
-4.155060106108218
 10
1.861763464073457
 20
-4.171155490406666
 10
1.887327464172308
 20
-4.186951948057311
 10
1.869968435408231
 20
-4.196243925384048
 10
1.853113830331785
 20
-4.205266075117202
 10
1.836725050610741
 20
-4.196120314525666
 10
1.821494822076905
 20
-4.188769797237202
 10
1.74539237823813
 20
-4.152040538135907
 10
1.680954206108279
 20
-4.099096853150741
 10
1.618967809661601
 20
-4.042679558752399
 10
1.580537819061381
 20
-4.007702014616876
 10
1.541434822649573
 20
-3.973463971239148
 10
1.497512926665498
 20
-3.934331274552985
 10
1.494912409122586
 20
-3.971028308255427
 10
1.502176711444652
 20
-3.996776642445613
 10
1.521469143897282
 20
-4.019278387943055
 10
1.537532783772955
 20
-4.038014812021022
 10
1.530547327346388
 20
-4.045916768411163
 10
1.508506837931375
 20
-4.049226124485307
 10
1.481372030003336
 20
-4.053300232562631
 10
1.46028056656083
 20
-4.042645890425218
 10
1.439879003215538
 20
-4.026613754484262
 10
1.379581193621157
 20
-3.979229431781378
 10
1.332080474701431
 20
-3.919561941369491
 10
1.28146158770835
 20
-3.862895260861933
 10
1.260568286420127
 20
-3.839505633479045
 10
1.240760247585475
 20
-3.81515020608208
 10
1.220094027139705
 20
-3.79155351848701
 10
1.206498456012683
 20
-3.776030014774581
 10
1.196759712008619
 20
-3.772187256202617
 10
1.188520230638473
 20
-3.797756426794573
 10
1.182780382073702
 20
-3.815568655291372
 10
1.185114799587824
 20
-3.846053642140254
 10
1.166363284884621
 20
-3.848169456015739
 10
1.14414741955818
 20
-3.850676062974596
 10
1.134740849675002
 20
-3.820745641572027
 10
1.119955704402148
 20
-3.804891707277117
 10
1.044013365483528
 20
-3.723458124316771
 10
1.026049148538315
 20
-3.616808888199911
 10
0.9955428183748659
 20
-3.515667068946211
 10
0.9921373272021962
 20
-3.504376154936962
 10
0.98939287756059
 20
-3.492884433404849
 10
0.9859116326517525
 20
-3.481618530152925
 10
0.9852433764791613
 20
-3.47945606159548
 10
0.9825594697044708
 20
-3.477915976114875
 10
0.980550612889816
 20
-3.475823249092324
 10
0.9628787091709733
 20
-3.474257190902158
 10
0.9669776175786006
 20
-3.507805995524803
 10
0.9462501328017652
 20
-3.498462794243146
 10
0.9323178483418815
 20
-3.492182448783044
 10
0.9307216990843017
 20
-3.474836767105823
 10
0.9225130603067302
 20
-3.463214941537949
 10
0.8270442038785479
 20
-3.328049113272199
 10
0.8250890360213436
 20
-3.170228108132278
 10
0.8131909498045312
 20
-3.014726369759248
 10
0.8121480433089926
 20
-3.001095747498741
 10
0.8199708791302353
 20
-2.982089736315225
 10
0.8041230772806278
 20
-2.975385169932603
 10
0.7902162244321668
 20
-2.969501870245217
 10
0.7831121773353086
 20
-2.987777278728825
 10
0.7733586433160882
 20
-2.995621037010526
 10
0.7274052245185328
 20
-3.03257635488007
 10
0.6776710179137176
 20
-3.061852408295029
 10
0.6130996454644446
 20
-3.080754047664262
 10
0.629760582507073
 20
-3.045147386786488
 10
0.6419450148404924
 20
-3.016683461520845
 10
0.6561295412051954
 20
-2.989254115851963
 10
0.6963862189211846
 20
-2.911408374129198
 10
0.6972564700263698
 20
-2.829221342104094
 10
0.6770583896334933
 20
-2.747504704707353
 10
0.6499210866419263
 20
-2.637713251711981
 10
0.6567890496249144
 20
-2.529120631652454
 10
0.6760333093147639
 20
-2.419862220422841
 10
0.6762610815603693
 20
-2.418568875682859
 10
0.6766469296081948
 20
-2.417286352905194
 10
0.6767190760235987
 20
-2.415985432791608
 10
0.6778449959883421
 20
-2.395681267107092
 10
0.6902383673468522
 20
-2.366885227842582
 10
0.6734948376891022
 20
-2.357518819463975
 10
0.65603336101516
 20
-2.34775043530759
 10
0.638875996512613
 20
-2.373674085287196
 10
0.6230860320393453
 20
-2.386339989729852
 10
0.6168933595044513
 20
-2.391307510917815
 10
0.6116946541466556
 20
-2.39747771285042
 10
0.6025605421951038
 20
-2.394805289380176
 10
0.6013020682225816
 20
-2.393548498824
 10
0.6000417079218955
 20
-2.392293511928213
 10
0.5987794462625465
 20
-2.391040328692813
 97
        0
 97
        0
 92
        1
 93
        1
 72
     4
 94
        3
 73
     0
 74
     1
 95
      188
 96
      184
 40
0.0
 40
0.0
 40
0.0
 40
0.0
 40
1.0
 40
1.0
 40
1.0
 40
2.0
 40
2.0
 40
2.0
 40
3.0
 40
3.0
 40
3.0
 40
4.0
 40
4.0
 40
4.0
 40
5.0
 40
5.0
 40
5.0
 40
6.0
 40
6.0
 40
6.0
 40
7.0
 40
7.0
 40
7.0
 40
8.0
 40
8.0
 40
8.0
 40
9.0
 40
9.0
 40
9.0
 40
10.0
 40
10.0
 40
10.0
 40
11.0
 40
11.0
 40
11.0
 40
12.0
 40
12.0
 40
12.0
 40
13.0
 40
13.0
 40
13.0
 40
14.0
 40
14.0
 40
14.0
 40
15.0
 40
15.0
 40
15.0
 40
16.0
 40
16.0
 40
16.0
 40
17.0
 40
17.0
 40
17.0
 40
18.0
 40
18.0
 40
18.0
 40
19.0
 40
19.0
 40
19.0
 40
20.0
 40
20.0
 40
20.0
 40
21.0
 40
21.0
 40
21.0
 40
22.0
 40
22.0
 40
22.0
 40
23.0
 40
23.0
 40
23.0
 40
24.0
 40
24.0
 40
24.0
 40
25.0
 40
25.0
 40
25.0
 40
26.0
 40
26.0
 40
26.0
 40
27.0
 40
27.0
 40
27.0
 40
28.0
 40
28.0
 40
28.0
 40
29.0
 40
29.0
 40
29.0
 40
30.0
 40
30.0
 40
30.0
 40
31.0
 40
31.0
 40
31.0
 40
32.0
 40
32.0
 40
32.0
 40
33.0
 40
33.0
 40
33.0
 40
34.0
 40
34.0
 40
34.0
 40
35.0
 40
35.0
 40
35.0
 40
36.0
 40
36.0
 40
36.0
 40
37.0
 40
37.0
 40
37.0
 40
38.0
 40
38.0
 40
38.0
 40
39.0
 40
39.0
 40
39.0
 40
40.0
 40
40.0
 40
40.0
 40
41.0
 40
41.0
 40
41.0
 40
42.0
 40
42.0
 40
42.0
 40
43.0
 40
43.0
 40
43.0
 40
44.0
 40
44.0
 40
44.0
 40
45.0
 40
45.0
 40
45.0
 40
46.0
 40
46.0
 40
46.0
 40
47.0
 40
47.0
 40
47.0
 40
48.0
 40
48.0
 40
48.0
 40
49.0
 40
49.0
 40
49.0
 40
50.0
 40
50.0
 40
50.0
 40
51.0
 40
51.0
 40
51.0
 40
52.0
 40
52.0
 40
52.0
 40
53.0
 40
53.0
 40
53.0
 40
54.0
 40
54.0
 40
54.0
 40
55.0
 40
55.0
 40
55.0
 40
56.0
 40
56.0
 40
56.0
 40
57.0
 40
57.0
 40
57.0
 40
58.0
 40
58.0
 40
58.0
 40
59.0
 40
59.0
 40
59.0
 40
60.0
 40
60.0
 40
60.0
 40
61.0
 40
61.0
 40
61.0
 40
61.0
 10
2.958086925079492
 20
-2.240004333188671
 10
2.953990692101443
 20
-2.25824294700044
 10
2.964700586978728
 20
-2.269704848014183
 10
2.969400685453618
 20
-2.282603424646494
 10
2.976105732812357
 20
-2.30100196301238
 10
2.984724103107358
 20
-2.318844973979733
 10
2.989791186348561
 20
-2.337661480578807
 10
2.995553039570041
 20
-2.359057822748367
 10
2.988676524230717
 20
-2.370713917863554
 10
2.963468326203787
 20
-2.364328719613076
 10
2.877732412005419
 20
-2.342612528335267
 10
2.795503775547432
 20
-2.31396967995944
 10
2.72682952663768
 20
-2.254957158755309
 10
2.701340198078747
 20
-2.233053867773581
 10
2.686152175197928
 20
-2.186368884323921
 10
2.6566216854247
 20
-2.187771290395163
 10
2.626423119844907
 20
-2.189205200401135
 10
2.598081843485438
 20
-2.223013371387133
 10
2.568313992005541
 20
-2.241670795140269
 10
2.507369269553136
 20
-2.279869436235104
 10
2.448680445266089
 20
-2.323612769841083
 10
2.373794269746845
 20
-2.331004530830342
 10
2.350810706438589
 20
-2.333273054618404
 10
2.320295177607174
 20
-2.339686870946985
 10
2.310353161077741
 20
-2.314435385070813
 10
2.302720791793149
 20
-2.29505000398635
 10
2.331499996894068
 20
-2.284839843279693
 10
2.34531098519306
 20
-2.272494389165419
 10
2.366138212389185
 20
-2.253877247160883
 10
2.387658045173099
 20
-2.236675136850295
 10
2.390226938537252
 20
-2.206498936659273
 10
2.390954895868579
 20
-2.197948263750732
 10
2.392380148304697
 20
-2.187035998178266
 10
2.381728211047781
 20
-2.182384718777775
 10
2.373358385153829
 20
-2.17872990161791
 10
2.367252393530925
 20
-2.185004715852831
 10
2.360745147594407
 20
-2.189462161883966
 10
2.328344673416786
 20
-2.211656323163766
 10
2.295533565891535
 20
-2.233254314564356
 10
2.263240950604919
 20
-2.255602388197
 10
2.155740747518469
 20
-2.329998449067666
 10
2.037129274997091
 20
-2.362631956167017
 10
1.906452997917325
 20
-2.354099079374262
 10
1.881923577415225
 20
-2.352497308708482
 10
1.876569591928791
 20
-2.345593978951443
 10
1.885809984568507
 20
-2.32430717908926
 10
1.895777973807488
 20
-2.301344297753429
 10
1.903806787644675
 20
-2.27843985501406
 10
1.900018259128274
 20
-2.252201285931265
 10
1.896827583907452
 20
-2.230103199627971
 10
1.89055673772537
 20
-2.223667378642681
 10
1.870263514247199
 20
-2.237720418165332
 10
1.847647296437332
 20
-2.253381962019198
 10
1.823723064116368
 20
-2.267150263689081
 10
1.800424822192983
 20
-2.281832660442028
 10
1.74090318778422
 20
-2.319343625954136
 10
1.676180879021748
 20
-2.336021953288966
 10
1.605822131556566
 20
-2.331791768466322
 10
1.56542627138088
 20
-2.329363079636083
 10
1.564034206295837
 20
-2.327193035705048
 10
1.58165212044715
 20
-2.292653420310962
 10
1.595332283246231
 20
-2.265833591608132
 10
1.607446387855147
 20
-2.238213899646628
 10
1.620201032388738
 20
-2.210923796559453
 10
1.623605501487191
 20
-2.203639653973167
 10
1.627095704575923
 20
-2.195620459658016
 10
1.618926565960793
 20
-2.189725496300146
 10
1.613032083579027
 20
-2.185471984136535
 10
1.606689090981553
 20
-2.189222876272904
 10
1.600531274183595
 20
-2.191882193144352
 10
1.56569525726627
 20
-2.206926644658539
 10
1.530976959250059
 20
-2.222300083826932
 10
1.49570674115609
 20
-2.236269193019666
 10
1.443222628837008
 20
-2.257056018223175
 10
1.389463989967958
 20
-2.273996116801855
 10
1.334899295272913
 20
-2.288669495252874
 10
1.215739209384474
 20
-2.320713806626499
 10
1.120732781417953
 20
-2.271108336281663
 10
1.029198940790416
 20
-2.203083886086574
 10
0.9808698006559223
 20
-2.167167476598706
 10
0.9449657462417033
 20
-2.128243884273173
 10
0.9554129981059355
 20
-2.062777866212008
 10
0.9570357212931968
 20
-2.052609309938235
 10
0.9570990297727096
 20
-2.042417546567511
 10
0.9423651685767834
 20
-2.038628056098901
 10
0.9097474435058075
 20
-2.030238991160837
 10
0.8606455250794118
 20
-2.053072970901161
 10
0.8487131993762835
 20
-2.084593258810981
 10
0.8413149752706456
 20
-2.104136760789187
 10
0.83408049346695
 20
-2.124023198728562
 10
0.8298883658784335
 20
-2.144396865459902
 10
0.8272505125655698
 20
-2.157216682255403
 10
0.8148332126459586
 20
-2.173495318448949
 10
0.8309553813011108
 20
-2.18421182674764
 10
0.8479296893050963
 20
-2.195494924895229
 10
0.8634831638409094
 20
-2.184256677769213
 10
0.8775161226112687
 20
-2.174180589151168
 10
0.8828039738835969
 20
-2.170383643552971
 10
0.88808972088547
 20
-2.165997141496986
 10
0.8918593710898347
 20
-2.160782759324333
 10
0.9030809944793089
 20
-2.14526069854023
 10
0.9101122638796444
 20
-2.148072965812313
 10
0.9206144372026048
 20
-2.162950638862918
 10
0.9769873314944814
 20
-2.242811309723632
 10
1.051998350373373
 20
-2.301375200468025
 10
1.13673659989086
 20
-2.348442920651349
 10
1.145644878531711
 20
-2.353391082551196
 10
1.153683492256997
 20
-2.35812737447783
 10
1.160457920418531
 20
-2.367528292891797
 10
1.248108600481474
 20
-2.489160896557829
 10
1.294937516029854
 20
-2.628447968558956
 10
1.335459151456373
 20
-2.770301288555705
 10
1.414750226367548
 20
-3.047874761776459
 10
1.550944561906767
 20
-3.292959261216715
 10
1.748451266006845
 20
-3.504087328787313
 10
1.839779369106471
 20
-3.601714415171045
 10
1.951558576089976
 20
-3.663013617011099
 10
2.078095933562584
 20
-3.701442886147156
 10
2.215985168765453
 20
-3.74331955149882
 10
2.357868068792502
 20
-3.758272617553505
 10
2.500694283200826
 20
-3.767376533224099
 10
2.693536841789662
 20
-3.779668358502931
 10
2.883037818905475
 20
-3.769891316776718
 10
3.063654445941539
 20
-3.689579851063804
 10
3.139485378770384
 20
-3.655861021388874
 10
3.212139223953297
 20
-3.616243500791269
 10
3.279073782299823
 20
-3.568855570767608
 10
3.332915930644706
 20
-3.53073653121775
 10
3.376087143176594
 20
-3.477998944492558
 10
3.415702499381723
 20
-3.424183730809444
 10
3.511452095548823
 20
-3.294113844351083
 10
3.605525249510214
 20
-3.162600548608705
 10
3.659781518279437
 20
-3.00859151957017
 10
3.712551089915425
 20
-2.858802815344183
 10
3.767620689274205
 20
-2.710230740169815
 10
3.84438038695723
 20
-2.570702939629301
 10
3.850800215487096
 20
-2.559033978403376
 10
3.852104622677441
 20
-2.540271581615848
 10
3.871853982427562
 20
-2.54189343303392
 10
3.916906532984891
 20
-2.545593822679494
 10
3.953853674260699
 20
-2.51926951960642
 10
3.995192127353524
 20
-2.509143529717726
 10
4.044923132461134
 20
-2.49696184796638
 10
4.086208437694621
 20
-2.466962406493091
 10
4.116260786539215
 20
-2.42644329619111
 10
4.13595122671677
 20
-2.399894617766146
 10
4.148873852154186
 20
-2.396921824719811
 10
4.168906506828787
 20
-2.42264178131994
 10
4.17670168652411
 20
-2.432649691575433
 10
4.191683851633014
 20
-2.441476444766888
 10
4.193371115801053
 20
-2.421863561985889
 10
4.197520977614557
 20
-2.373632961830417
 10
4.199044950395723
 20
-2.324353954015237
 10
4.170347270744211
 20
-2.281098209933311
 10
4.158375535061674
 20
-2.263053549734928
 10
4.140442341075085
 20
-2.260975131751429
 10
4.121403142540481
 20
-2.267587110234305
 10
4.102898308455906
 20
-2.274013672429608
 10
4.097130443033166
 20
-2.290001799057159
 10
4.103885992882675
 20
-2.305720939799319
 10
4.119793556013039
 20
-2.342734936753383
 10
4.098469961478991
 20
-2.360724765676057
 10
4.07271537459946
 20
-2.379914269242729
 10
3.931915151779448
 20
-2.484823694552334
 10
3.776104145772403
 20
-2.494585104555249
 10
3.612432306832034
 20
-2.453155266002922
 10
3.540723339202739
 20
-2.435003468377684
 10
3.476353104947394
 20
-2.401168001997853
 10
3.418153794088791
 20
-2.346866882207059
 10
3.410018323800841
 20
-2.387206347934719
 10
3.442914203364176
 20
-2.404034258837467
 10
3.446653552074091
 20
-2.432048471447148
 10
3.449002639359327
 20
-2.449645102405914
 10
3.463084417204097
 20
-2.468438041175962
 10
3.447312729822746
 20
-2.483765547126545
 10
3.433621504573289
 20
-2.497071029541682
 10
3.414796099916328
 20
-2.488770584450524
 10
3.398693500976353
 20
-2.484086598675074
 10
3.259638740432769
 20
-2.443637229907962
 10
3.136185401730245
 20
-2.373911086261766
 10
3.023006193556006
 20
-2.284487167552445
 10
3.003215469861036
 20
-2.268850393967859
 10
2.985510980011263
 20
-2.249108609591354
 10
2.958086925079492
 20
-2.240004333188671
 97
        0
 97
        0
 75
     2
 76
     1
 98
        0
  0
ENDBLK
  5
47
330
44
100
AcDbEntity
  8
0
100
AcDbBlockEnd
  0
ENDSEC
  0
SECTION
  2
ENTITIES
  0
SPLINE
  5
41
330
1F
100
AcDbEntity
  8
Layer 1
370
     0
100
AcDbSpline
210
0.0
220
0.0
230
1.0
 70
    11
 71
     3
 72
   293
 73
   289
 74
     0
 42
0.0000000001
 43
0.0000000001
 12
1.0
 22
0.0
 32
0.0
 13
1.0
 23
0.0
 33
0.0
 40
0.0
 40
0.0
 40
0.0
 40
0.0
 40
1.0
 40
1.0
 40
1.0
 40
2.0
 40
2.0
 40
2.0
 40
3.0
 40
3.0
 40
3.0
 40
4.0
 40
4.0
 40
4.0
 40
5.0
 40
5.0
 40
5.0
 40
6.0
 40
6.0
 40
6.0
 40
7.0
 40
7.0
 40
7.0
 40
8.0
 40
8.0
 40
8.0
 40
9.0
 40
9.0
 40
9.0
 40
10.0
 40
10.0
 40
10.0
 40
11.0
 40
11.0
 40
11.0
 40
12.0
 40
12.0
 40
12.0
 40
13.0
 40
13.0
 40
13.0
 40
14.0
 40
14.0
 40
14.0
 40
15.0
 40
15.0
 40
15.0
 40
16.0
 40
16.0
 40
16.0
 40
17.0
 40
17.0
 40
17.0
 40
18.0
 40
18.0
 40
18.0
 40
19.0
 40
19.0
 40
19.0
 40
20.0
 40
20.0
 40
20.0
 40
21.0
 40
21.0
 40
21.0
 40
22.0
 40
22.0
 40
22.0
 40
23.0
 40
23.0
 40
23.0
 40
24.0
 40
24.0
 40
24.0
 40
25.0
 40
25.0
 40
25.0
 40
26.0
 40
26.0
 40
26.0
 40
27.0
 40
27.0
 40
27.0
 40
28.0
 40
28.0
 40
28.0
 40
29.0
 40
29.0
 40
29.0
 40
30.0
 40
30.0
 40
30.0
 40
31.0
 40
31.0
 40
31.0
 40
32.0
 40
32.0
 40
32.0
 40
33.0
 40
33.0
 40
33.0
 40
34.0
 40
34.0
 40
34.0
 40
35.0
 40
35.0
 40
35.0
 40
36.0
 40
36.0
 40
36.0
 40
37.0
 40
37.0
 40
37.0
 40
38.0
 40
38.0
 40
38.0
 40
39.0
 40
39.0
 40
39.0
 40
40.0
 40
40.0
 40
40.0
 40
41.0
 40
41.0
 40
41.0
 40
42.0
 40
42.0
 40
42.0
 40
43.0
 40
43.0
 40
43.0
 40
44.0
 40
44.0
 40
44.0
 40
45.0
 40
45.0
 40
45.0
 40
46.0
 40
46.0
 40
46.0
 40
47.0
 40
47.0
 40
47.0
 40
48.0
 40
48.0
 40
48.0
 40
49.0
 40
49.0
 40
49.0
 40
50.0
 40
50.0
 40
50.0
 40
51.0
 40
51.0
 40
51.0
 40
52.0
 40
52.0
 40
52.0
 40
53.0
 40
53.0
 40
53.0
 40
54.0
 40
54.0
 40
54.0
 40
55.0
 40
55.0
 40
55.0
 40
56.0
 40
56.0
 40
56.0
 40
57.0
 40
57.0
 40
57.0
 40
58.0
 40
58.0
 40
58.0
 40
59.0
 40
59.0
 40
59.0
 40
60.0
 40
60.0
 40
60.0
 40
61.0
 40
61.0
 40
61.0
 40
62.0
 40
62.0
 40
62.0
 40
63.0
 40
63.0
 40
63.0
 40
64.0
 40
64.0
 40
64.0
 40
65.0
 40
65.0
 40
65.0
 40
66.0
 40
66.0
 40
66.0
 40
67.0
 40
67.0
 40
67.0
 40
68.0
 40
68.0
 40
68.0
 40
69.0
 40
69.0
 40
69.0
 40
70.0
 40
70.0
 40
70.0
 40
71.0
 40
71.0
 40
71.0
 40
72.0
 40
72.0
 40
72.0
 40
73.0
 40
73.0
 40
73.0
 40
74.0
 40
74.0
 40
74.0
 40
75.0
 40
75.0
 40
75.0
 40
76.0
 40
76.0
 40
76.0
 40
77.0
 40
77.0
 40
77.0
 40
78.0
 40
78.0
 40
78.0
 40
79.0
 40
79.0
 40
79.0
 40
80.0
 40
80.0
 40
80.0
 40
81.0
 40
81.0
 40
81.0
 40
82.0
 40
82.0
 40
82.0
 40
83.0
 40
83.0
 40
83.0
 40
84.0
 40
84.0
 40
84.0
 40
85.0
 40
85.0
 40
85.0
 40
86.0
 40
86.0
 40
86.0
 40
87.0
 40
87.0
 40
87.0
 40
88.0
 40
88.0
 40
88.0
 40
89.0
 40
89.0
 40
89.0
 40
90.0
 40
90.0
 40
90.0
 40
91.0
 40
91.0
 40
91.0
 40
92.0
 40
92.0
 40
92.0
 40
93.0
 40
93.0
 40
93.0
 40
94.0
 40
94.0
 40
94.0
 40
95.0
 40
95.0
 40
95.0
 40
96.0
 40
96.0
 40
96.0
 40
96.0
 10
4.480494580439932
 20
-2.804160252596173
 30
0.0
 10
4.459532679935086
 20
-2.790606346024055
 30
0.0
 10
4.43723126098439
 20
-2.777918677412749
 30
0.0
 10
4.431478786796914
 20
-2.751283663777359
 30
0.0
 10
4.428248070315552
 20
-2.736310877702458
 30
0.0
 10
4.423519594250592
 20
-2.720786412037822
 30
0.0
 10
4.448027731560134
 20
-2.7138521795662
 30
0.0
 10
4.482937458065205
 20
-2.704001788984316
 30
0.0
 10
4.490738890449872
 20
-2.675947414870052
 30
0.0
 10
4.486247054627407
 20
-2.642377687786948
 30
0.0
 10
4.473638747073033
 20
-2.548601777056976
 30
0.0
 10
4.456223083372884
 20
-2.455850345425637
 30
0.0
 10
4.430454307698331
 20
-2.364753952563445
 30
0.0
 10
4.409256247927058
 20
-2.32023047571901
 30
0.0
 10
4.409256247927058
 20
-2.32023047571901
 30
0.0
 10
4.470171390349176
 20
-2.303760411036617
 30
0.0
 10
4.477027223716075
 20
-2.296037858732777
 30
0.0
 10
4.484828656100742
 20
-2.288866505042544
 30
0.0
 10
4.490738890449872
 20
-2.280513393068152
 30
0.0
 10
4.52903709359796
 20
-2.226691205231544
 30
0.0
 10
4.522181260231061
 20
-2.202971387754208
 30
0.0
 10
4.462527237150046
 20
-2.175626453391323
 30
0.0
 10
4.437546781307725
 20
-2.164200385097224
 30
0.0
 10
4.413354164321492
 20
-2.150803757710656
 30
0.0
 10
4.389161547335258
 20
-2.137801049752119
 30
0.0
 10
4.340697433281952
 20
-2.111717234730349
 30
0.0
 10
4.336678877944475
 20
-2.059234565339567
 30
0.0
 10
4.316978096780708
 20
-2.015971245884026
 30
0.0
 10
4.306576026609112
 20
-1.993197508400549
 30
0.0
 10
4.334236000319202
 20
-1.990675750694461
 30
0.0
 10
4.338333435737519
 20
-1.975151285029837
 30
0.0
 10
4.34321919098804
 20
-1.956790503288011
 30
0.0
 10
4.345031989918854
 20
-1.939453719668677
 30
0.0
 10
4.337072797372532
 20
-1.921486376378791
 30
0.0
 10
4.295780037009459
 20
-1.829050465070774
 30
0.0
 10
4.252911117958067
 20
-1.738347991636639
 30
0.0
 10
4.137622108109629
 20
-1.718726090553698
 30
0.0
 10
4.115714608587015
 20
-1.714943694482612
 30
0.0
 10
4.110986613498148
 20
-1.704935543739073
 30
0.0
 10
4.120364204571135
 20
-1.683264684458929
 30
0.0
 10
4.13289363204467
 20
-1.654422952464668
 30
0.0
 10
4.138961626555455
 20
-1.623925700725143
 30
0.0
 10
4.13084515482357
 20
-1.591458851845358
 30
0.0
 10
4.119103085230032
 20
-1.544334737213995
 30
0.0
 10
4.104445819478466
 20
-1.532672028677401
 30
0.0
 10
4.055982186401277
 20
-1.538266742703197
 30
0.0
 10
4.02343645744064
 20
-1.541970739669561
 30
0.0
 10
3.991048007665591
 20
-1.547408174509807
 30
0.0
 10
3.958423879600231
 20
-1.550638890991169
 30
0.0
 10
3.851487981726197
 20
-1.561277601405272
 30
0.0
 10
3.748886159512974
 20
-1.552136169598662
 30
0.0
 10
3.657080326899404
 20
-1.487833031509631
 30
0.0
 10
3.636670586960362
 20
-1.473490805105282
 30
0.0
 10
3.630996511877608
 20
-1.461749216487849
 30
0.0
 10
3.639901303441724
 20
-1.43653212040302
 30
0.0
 10
3.678357266751492
 20
-1.328335584163988
 30
0.0
 10
3.689232136431959
 20
-1.218799048503026
 30
0.0
 10
3.664409440751291
 20
-1.104140598325153
 30
0.0
 10
3.596065622424046
 20
-0.7889988031920312
 30
0.0
 10
3.293071840715078
 20
-0.6189598026050286
 30
0.0
 10
3.010866808114037
 20
-0.6938304666449665
 30
0.0
 10
3.010866808114037
 20
-0.6938304666449665
 30
0.0
 10
3.010866808114037
 20
-0.6938304666449665
 30
0.0
 10
3.010866808114037
 20
-0.6938304666449665
 30
0.0
 10
3.010865846161828
 20
-0.6938304666449665
 30
0.0
 10
3.010864403233528
 20
-0.6938309476210709
 30
0.0
 10
3.010863441281319
 20
-0.6938309476210709
 30
0.0
 10
2.971552783437194
 20
-0.7042604334305148
 30
0.0
 10
2.932656726993526
 20
-0.719461683154173
 30
0.0
 10
2.894843828732999
 20
-0.7396674892256921
 30
0.0
 10
2.84879902447594
 20
-0.7659076214808288
 30
0.0
 10
2.795008100086003
 20
-0.806175421769189
 30
0.0
 10
2.738347672267764
 20
-0.8684599031554777
 30
0.0
 10
2.714329649606801
 20
-0.897893235755987
 30
0.0
 10
2.687954844042932
 20
-0.9263708688405484
 30
0.0
 10
2.673302388052384
 20
-0.9656045705082634
 30
0.0
 10
2.662742557719108
 20
-0.9455098699164384
 30
0.0
 10
2.655020005415281
 20
-0.9321132425298704
 30
0.0
 10
2.648479211395599
 20
-0.9181649355535657
 30
0.0
 10
2.501196152176261
 20
-0.6037407567655843
 30
0.0
 10
2.083933991908654
 20
-0.4960170200354367
 30
0.0
 10
1.804182899383224
 20
-0.7266734388370221
 30
0.0
 10
1.650122405901723
 20
-0.8537829173836952
 30
0.0
 10
1.585109828061301
 20
-1.019427239320963
 30
0.0
 10
1.602840531108692
 20
-1.218011209646912
 30
0.0
 10
1.609223564966707
 20
-1.24701070180284
 30
0.0
 10
1.615291559477504
 20
-1.276089074039596
 30
0.0
 10
1.62222627292523
 20
-1.305009686114696
 30
0.0
 10
1.634440661051548
 20
-1.355995076897986
 30
0.0
 10
1.634677301294043
 20
-1.355995076897986
 30
0.0
 10
1.580145192729952
 20
-1.347484685738032
 30
0.0
 10
1.512374697917052
 20
-1.3334574986809
 30
0.0
 10
1.444998122532196
 20
-1.320218631455987
 30
0.0
 10
1.391017693557829
 20
-1.269863319367144
 30
0.0
 10
1.370607953618787
 20
-1.250950858035594
 30
0.0
 10
1.343420779417581
 20
-1.258673410339434
 30
0.0
 10
1.324271677843537
 20
-1.279635310844292
 30
0.0
 10
1.296060024543711
 20
-1.310289360793276
 30
0.0
 10
1.274783084691636
 20
-1.344884047951104
 30
0.0
 10
1.280693319040766
 20
-1.388777446101092
 30
0.0
 10
1.283766756336579
 20
-1.411787823827063
 30
0.0
 10
1.274310285182752
 20
-1.416594698996757
 30
0.0
 10
1.253585024920375
 20
-1.419510857107007
 30
0.0
 10
1.153032641880461
 20
-1.433458683107208
 30
0.0
 10
1.061463449509385
 20
-1.468920089201977
 30
0.0
 10
0.9836843229768293
 20
-1.536375544667648
 30
0.0
 10
0.9443616407301457
 20
-1.570497432316605
 30
0.0
 10
0.9382941271954526
 20
-1.59949692447252
 30
0.0
 10
0.9645352214027854
 20
-1.641893044015028
 30
0.0
 10
0.9828964841207278
 20
-1.648985517624421
 30
0.0
 10
1.000312147820889
 20
-1.658993187391868
 30
0.0
 10
1.031990676868468
 20
-1.659781507224074
 30
0.0
 10
0.99684479109702
 20
-1.674281012813986
 30
0.0
 10
0.9783257682174229
 20
-1.696897471111899
 30
0.0
 10
0.9486173172862209
 20
-1.695321793399684
 30
0.0
 10
0.87706394542613
 20
-1.718647210472871
 30
0.0
 10
0.8040921750393737
 20
-1.715810413419553
 30
0.0
 10
0.7310415245717902
 20
-1.705566103409625
 30
0.0
 10
0.6712302223052246
 20
-1.697212991435233
 30
0.0
 10
0.6464859257292674
 20
-1.718962730796193
 30
0.0
 10
0.6525539202400649
 20
-1.779167952490815
 30
0.0
 10
0.6564151963919913
 20
-1.817229996372513
 30
0.0
 10
0.6644532690191529
 20
-1.854424840341165
 30
0.0
 10
0.6891186855142702
 20
-1.885552170775137
 30
0.0
 10
0.7027514721672408
 20
-1.886340490607343
 30
0.0
 10
0.7070855478280514
 20
-1.899421597670602
 30
0.0
 10
0.715911459311327
 20
-1.906356311118328
 30
0.0
 10
0.7433347927789352
 20
-1.928027170398473
 30
0.0
 10
0.7427835941653155
 20
-1.929130529577909
 30
0.0
 10
0.7093706652916454
 20
-1.954032105339416
 30
0.0
 10
0.7066916283999944
 20
-1.958445061081054
 30
0.0
 10
0.7048004303644575
 20
-1.963725216735737
 30
0.0
 10
0.7010964333980938
 20
-1.967270972564329
 30
0.0
 10
0.6252878659580194
 20
-2.039533784175811
 30
0.0
 10
0.5943182956857147
 20
-2.134254812947423
 30
0.0
 10
0.5713867980405843
 20
-2.231891999829296
 30
0.0
 10
0.5567290513129137
 20
-2.293831140373906
 30
0.0
 10
0.5477458606440753
 20
-2.357189160421272
 30
0.0
 10
0.5379738691669141
 20
-2.420152780064477
 30
0.0
 10
0.5345065124430448
 20
-2.442375318934334
 30
0.0
 10
0.5402594676066251
 20
-2.463809537971984
 30
0.0
 10
0.5605908084409318
 20
-2.478072884295493
 30
0.0
 10
0.6183531525102933
 20
-2.480594642001582
 30
0.0
 10
0.6248150664491352
 20
-2.491942311190971
 30
0.0
 10
0.6030653270881632
 20
-2.552305774023353
 30
0.0
 10
0.6007802096245692
 20
-2.596987011029442
 30
0.0
 10
0.6062965245456426
 20
-2.641432088769155
 30
0.0
 10
0.6161469151275266
 20
-2.68445828700611
 30
0.0
 10
0.645304167445109
 20
-2.81219832522336
 30
0.0
 10
0.6471953654806586
 20
-2.935209887375625
 30
0.0
 10
0.5683922408255991
 20
-3.0486076991885
 30
0.0
 10
0.5598024886087134
 20
-3.060979847476473
 30
0.0
 10
0.5550744935198584
 20
-3.077055511754704
 30
0.0
 10
0.5600391288512078
 20
-3.09344669635627
 30
0.0
 10
0.5600391288512078
 20
-3.09344669635627
 30
0.0
 10
0.5607543403158262
 20
-3.09344669635627
 30
0.0
 10
0.5607543403158262
 20
-3.09344669635627
 30
0.0
 10
0.5607543403158262
 20
-3.09344669635627
 30
0.0
 10
0.5600545200864973
 20
-3.093451025141197
 30
0.0
 10
0.5600545200864973
 20
-3.093451025141197
 30
0.0
 10
0.5600545200864973
 20
-3.093451025141197
 30
0.0
 10
0.5586029342087563
 20
-3.095986731154249
 30
0.0
 10
0.5586029342087563
 20
-3.095986731154249
 30
0.0
 10
0.5586029342087563
 20
-3.095986731154249
 30
0.0
 10
0.5615349645303997
 20
-3.095937671591805
 30
0.0
 10
0.5616157685156319
 20
-3.095966049181849
 30
0.0
 10
0.5616157685156319
 20
-3.095966049181849
 30
0.0
 10
0.5616148065634358
 20
-3.095968454062358
 30
0.0
 10
0.5616148065634358
 20
-3.095968454062358
 30
0.0
 10
0.566579441894785
 20
-3.1044788452223
 30
0.0
 10
0.5716229573069742
 20
-3.112989717358358
 30
0.0
 10
0.5765875926383361
 20
-3.121579469575257
 30
0.0
 10
0.6303313813702086
 20
-3.144432087139547
 30
0.0
 10
0.676746537226298
 20
-3.117481553180824
 30
0.0
 10
0.7223733732501689
 20
-3.096914053080127
 30
0.0
 10
0.753579583764968
 20
-3.082965746103835
 30
0.0
 10
0.763823893774909
 20
-3.084463024711315
 30
0.0
 10
0.7694974878815452
 20
-3.121185069171083
 30
0.0
 10
0.7834457948578372
 20
-3.211493623177173
 30
0.0
 10
0.7851008336269968
 20
-3.304875614479063
 30
0.0
 10
0.8269452735797813
 20
-3.389194573079092
 30
0.0
 10
0.8420753388402443
 20
-3.419691343842512
 30
0.0
 10
0.8529502085207241
 20
-3.454286031000341
 30
0.0
 10
0.8746210678008689
 20
-3.479266486842688
 30
0.0
 10
0.949720195489552
 20
-3.565713764696839
 30
0.0
 10
0.9909345567478896
 20
-3.669340066008671
 30
0.0
 10
1.035300754406775
 20
-3.772099167407456
 30
0.0
 10
1.055710494345817
 20
-3.819617201466877
 30
0.0
 10
1.096136535771949
 20
-3.853817969196673
 30
0.0
 10
1.130258423420893
 20
-3.891880013078359
 30
0.0
 10
1.152244322048255
 20
-3.916387669411809
 30
0.0
 10
1.18108653501862
 20
-3.922061263518445
 30
0.0
 10
1.208667628647883
 20
-3.906143359401893
 30
0.0
 10
1.229944087523866
 20
-3.893771211113896
 30
0.0
 10
1.24129175671323
 20
-3.899996484810269
 30
0.0
 10
1.255555103036752
 20
-3.914811510723489
 30
0.0
 10
1.303783057823656
 20
-3.964772903384275
 30
0.0
 10
1.348306534668104
 20
-4.018280051873666
 30
0.0
 10
1.402365362747206
 20
-4.062725129613378
 30
0.0
 10
1.451302276309383
 20
-4.102914530797003
 30
0.0
 10
1.504100466023488
 20
-4.116390038264424
 30
0.0
 10
1.563202809514779
 20
-4.091251822260422
 30
0.0
 10
1.589601663883779
 20
-4.079983033151873
 30
0.0
 10
1.602446611680635
 20
-4.098659335217032
 30
0.0
 10
1.617340517674708
 20
-4.111504283013902
 30
0.0
 10
1.667853108949114
 20
-4.155003280759729
 30
0.0
 10
1.719784579726277
 20
-4.196296522098919
 30
0.0
 10
1.777310764529236
 20
-4.230417928771759
 30
0.0
 10
1.809304813900149
 20
-4.249330871079413
 30
0.0
 10
1.844293420486034
 20
-4.257368943706575
 30
0.0
 10
1.878651467401369
 20
-4.250828149686892
 30
0.0
 10
1.910645516772269
 20
-4.244681275095268
 30
0.0
 10
1.934917013839342
 20
-4.253349907392981
 30
0.0
 10
1.958557951235851
 20
-4.270528930850661
 30
0.0
 10
2.036257716711462
 20
-4.326872876393357
 30
0.0
 10
2.128772989076424
 20
-4.341215102797706
 30
0.0
 10
2.219081062106397
 20
-4.359576365515649
 30
0.0
 10
2.285512038473472
 20
-4.373130753063884
 30
0.0
 10
2.352967493939154
 20
-4.384320662091593
 30
0.0
 10
2.421447428503433
 20
-4.384320662091593
 30
0.0
 10
2.456987714679043
 20
-4.384241782010753
 30
0.0
 10
2.491976321264929
 20
-4.382192823813562
 30
0.0
 10
2.526492128341943
 20
-4.372263553150838
 30
0.0
 10
2.549975305576784
 20
-4.365486599864779
 30
0.0
 10
2.572118964365801
 20
-4.371396834213909
 30
0.0
 10
2.596627101675368
 20
-4.375888670036375
 30
0.0
 10
2.750529354019111
 20
-4.404336482602578
 30
0.0
 10
2.904904886847817
 20
-4.422382705973279
 30
0.0
 10
3.036032920731991
 20
-4.305438657355706
 30
0.0
 10
3.049035628690515
 20
-4.293775948819126
 30
0.0
 10
3.062983935666807
 20
-4.291175311032197
 30
0.0
 10
3.079217360106718
 20
-4.290938670789703
 30
0.0
 10
3.115939404566486
 20
-4.290544751361645
 30
0.0
 10
3.152740329107069
 20
-4.289914672667186
 30
0.0
 10
3.189383974462114
 20
-4.288101873736372
 30
0.0
 10
3.294585953486173
 20
-4.283058358324196
 30
0.0
 10
3.372758999446761
 20
-4.231679048112861
 30
0.0
 10
3.429260705151137
 20
-4.145152890177845
 30
0.0
 10
3.438086616634412
 20
-4.131677863686542
 30
0.0
 10
3.442736212618532
 20
-4.127658827372973
 30
0.0
 10
3.458890756977603
 20
-4.136405858775409
 30
0.0
 10
3.482452814293285
 20
-4.149250806572278
 30
0.0
 10
3.5083788691534
 20
-4.142552733367034
 30
0.0
 10
3.530601408023257
 20
-4.130416744345439
 30
0.0
 10
3.594905027088392
 20
-4.095270858573991
 30
0.0
 10
3.661966563126018
 20
-4.065010247076972
 30
0.0
 10
3.721226185802859
 20
-4.020801809579754
 30
0.0
 10
3.757160391406539
 20
-3.993929674725778
 30
0.0
 10
3.790888359627413
 20
-3.965245702893172
 30
0.0
 10
3.814529297023935
 20
-3.926316940074533
 30
0.0
 10
3.823118568264716
 20
-3.912210872936561
 30
0.0
 10
3.831787200562429
 20
-3.904488320632733
 30
0.0
 10
3.852039661315909
 20
-3.909295195802416
 30
0.0
 10
3.881354192819066
 20
-3.916151029169315
 30
0.0
 10
3.911929843663302
 20
-3.912920312687952
 30
0.0
 10
3.940693176552839
 20
-3.901336003256094
 30
0.0
 10
3.942190455160345
 20
-3.899996484810269
 30
0.0
 10
3.943687733767824
 20
-3.898420326121949
 30
0.0
 10
3.94502725221365
 20
-3.896765768328881
 30
0.0
 10
3.967879869777966
 20
-3.820957200888819
 30
0.0
 10
3.974420663797648
 20
-3.741917435991278
 30
0.0
 10
3.991363527988899
 20
-3.664848230186205
 30
0.0
 10
4.002711197178288
 20
-3.613153399651537
 30
0.0
 10
4.024303176377594
 20
-3.567368803465999
 30
0.0
 10
4.048259153121332
 20
-3.520401968020198
 30
0.0
 10
4.085769517413306
 20
-3.447194038367039
 30
0.0
 10
4.130529634500236
 20
-3.388170093980484
 30
0.0
 10
4.207914360628643
 20
-3.351605809682395
 30
0.0
 10
4.267726143871313
 20
-3.323394156382569
 30
0.0
 10
4.295385636605311
 20
-3.264449573052944
 30
0.0
 10
4.307915545054938
 20
-3.199673154478912
 30
0.0
 10
4.311776821206851
 20
-3.17989349323433
 30
0.0
 10
4.312249620715749
 20
-3.158774313543896
 30
0.0
 10
4.324227849575664
 20
-3.141122490577345
 30
0.0
 10
4.326591847120097
 20
-3.121736748760819
 30
0.0
 10
4.329034724745371
 20
-3.102193727758706
 30
0.0
 10
4.331398722289779
 20
-3.082729586837432
 30
0.0
 10
4.320523852609313
 20
-3.051365616160991
 30
0.0
 10
4.336127198354764
 20
-3.021499405068122
 30
0.0
 10
4.336836157130039
 20
-2.990687113981367
 30
0.0
 10
4.337230557534187
 20
-2.975793688963399
 30
0.0
 10
4.350942224267984
 20
-2.972799131748439
 30
0.0
 10
4.36355053182236
 20
-2.976502647738698
 30
0.0
 10
4.419264398670622
 20
-2.993051592501918
 30
0.0
 10
4.470644189858048
 20
-2.984776879632237
 30
0.0
 10
4.517768304489411
 20
-2.950734353040237
 30
0.0
 10
4.563710660836628
 20
-2.866099393140783
 30
0.0
 10
4.561425062396918
 20
-2.856643402963073
 30
0.0
 10
4.480494580439932
 20
-2.804160252596173
 30
0.0
  0
SPLINE
  5
42
330
1F
100
AcDbEntity
  8
Layer 1
370
     0
100
AcDbSpline
210
0.0
220
0.0
230
1.0
 70
    11
 71
     3
 72
    14
 73
    10
 74
     0
 42
0.0000000001
 43
0.0000000001
 12
1.0
 22
0.0
 32
0.0
 13
1.0
 23
0.0
 33
0.0
 40
0.0
 40
0.0
 40
0.0
 40
0.0
 40
1.0
 40
1.0
 40
1.0
 40
2.0
 40
2.0
 40
2.0
 40
3.0
 40
3.0
 40
3.0
 40
3.0
 10
0.5623030833662975
 20
-3.094395181230665
 30
0.0
 10
0.5625074982099123
 20
-3.093898813892742
 30
0.0
 10
0.5626864213200962
 20
-3.093462087591559
 30
0.0
 10
0.5626926740094278
 20
-3.09344669635627
 30
0.0
 10
0.5626926740094278
 20
-3.09344669635627
 30
0.0
 10
0.5627181657428714
 20
-3.09344669635627
 30
0.0
 10
0.5627181657428714
 20
-3.09344669635627
 30
0.0
 10
0.5627181657428714
 20
-3.09344669635627
 30
0.0
 10
0.5623030833662975
 20
-3.094395181230665
 30
0.0
 10
0.5623030833662975
 20
-3.094395181230665
 30
0.0
  0
HATCH
  5
43
330
1F
100
AcDbEntity
  8
Layer 1
 62
   158
100
AcDbHatch
 10
0.0
 20
0.0
 30
0.0
210
0.0
220
0.0
230
1.0
  2
SOLID
 70
     1
 71
     0
 91
        2
 92
        1
 93
        1
 72
     4
 94
        3
 73
     0
 74
     1
 95
      293
 96
      289
 40
0.0
 40
0.0
 40
0.0
 40
0.0
 40
1.0
 40
1.0
 40
1.0
 40
2.0
 40
2.0
 40
2.0
 40
3.0
 40
3.0
 40
3.0
 40
4.0
 40
4.0
 40
4.0
 40
5.0
 40
5.0
 40
5.0
 40
6.0
 40
6.0
 40
6.0
 40
7.0
 40
7.0
 40
7.0
 40
8.0
 40
8.0
 40
8.0
 40
9.0
 40
9.0
 40
9.0
 40
10.0
 40
10.0
 40
10.0
 40
11.0
 40
11.0
 40
11.0
 40
12.0
 40
12.0
 40
12.0
 40
13.0
 40
13.0
 40
13.0
 40
14.0
 40
14.0
 40
14.0
 40
15.0
 40
15.0
 40
15.0
 40
16.0
 40
16.0
 40
16.0
 40
17.0
 40
17.0
 40
17.0
 40
18.0
 40
18.0
 40
18.0
 40
19.0
 40
19.0
 40
19.0
 40
20.0
 40
20.0
 40
20.0
 40
21.0
 40
21.0
 40
21.0
 40
22.0
 40
22.0
 40
22.0
 40
23.0
 40
23.0
 40
23.0
 40
24.0
 40
24.0
 40
24.0
 40
25.0
 40
25.0
 40
25.0
 40
26.0
 40
26.0
 40
26.0
 40
27.0
 40
27.0
 40
27.0
 40
28.0
 40
28.0
 40
28.0
 40
29.0
 40
29.0
 40
29.0
 40
30.0
 40
30.0
 40
30.0
 40
31.0
 40
31.0
 40
31.0
 40
32.0
 40
32.0
 40
32.0
 40
33.0
 40
33.0
 40
33.0
 40
34.0
 40
34.0
 40
34.0
 40
35.0
 40
35.0
 40
35.0
 40
36.0
 40
36.0
 40
36.0
 40
37.0
 40
37.0
 40
37.0
 40
38.0
 40
38.0
 40
38.0
 40
39.0
 40
39.0
 40
39.0
 40
40.0
 40
40.0
 40
40.0
 40
41.0
 40
41.0
 40
41.0
 40
42.0
 40
42.0
 40
42.0
 40
43.0
 40
43.0
 40
43.0
 40
44.0
 40
44.0
 40
44.0
 40
45.0
 40
45.0
 40
45.0
 40
46.0
 40
46.0
 40
46.0
 40
47.0
 40
47.0
 40
47.0
 40
48.0
 40
48.0
 40
48.0
 40
49.0
 40
49.0
 40
49.0
 40
50.0
 40
50.0
 40
50.0
 40
51.0
 40
51.0
 40
51.0
 40
52.0
 40
52.0
 40
52.0
 40
53.0
 40
53.0
 40
53.0
 40
54.0
 40
54.0
 40
54.0
 40
55.0
 40
55.0
 40
55.0
 40
56.0
 40
56.0
 40
56.0
 40
57.0
 40
57.0
 40
57.0
 40
58.0
 40
58.0
 40
58.0
 40
59.0
 40
59.0
 40
59.0
 40
60.0
 40
60.0
 40
60.0
 40
61.0
 40
61.0
 40
61.0
 40
62.0
 40
62.0
 40
62.0
 40
63.0
 40
63.0
 40
63.0
 40
64.0
 40
64.0
 40
64.0
 40
65.0
 40
65.0
 40
65.0
 40
66.0
 40
66.0
 40
66.0
 40
67.0
 40
67.0
 40
67.0
 40
68.0
 40
68.0
 40
68.0
 40
69.0
 40
69.0
 40
69.0
 40
70.0
 40
70.0
 40
70.0
 40
71.0
 40
71.0
 40
71.0
 40
72.0
 40
72.0
 40
72.0
 40
73.0
 40
73.0
 40
73.0
 40
74.0
 40
74.0
 40
74.0
 40
75.0
 40
75.0
 40
75.0
 40
76.0
 40
76.0
 40
76.0
 40
77.0
 40
77.0
 40
77.0
 40
78.0
 40
78.0
 40
78.0
 40
79.0
 40
79.0
 40
79.0
 40
80.0
 40
80.0
 40
80.0
 40
81.0
 40
81.0
 40
81.0
 40
82.0
 40
82.0
 40
82.0
 40
83.0
 40
83.0
 40
83.0
 40
84.0
 40
84.0
 40
84.0
 40
85.0
 40
85.0
 40
85.0
 40
86.0
 40
86.0
 40
86.0
 40
87.0
 40
87.0
 40
87.0
 40
88.0
 40
88.0
 40
88.0
 40
89.0
 40
89.0
 40
89.0
 40
90.0
 40
90.0
 40
90.0
 40
91.0
 40
91.0
 40
91.0
 40
92.0
 40
92.0
 40
92.0
 40
93.0
 40
93.0
 40
93.0
 40
94.0
 40
94.0
 40
94.0
 40
95.0
 40
95.0
 40
95.0
 40
96.0
 40
96.0
 40
96.0
 40
96.0
 10
4.480494580439932
 20
-2.804160252596173
 10
4.459532679935086
 20
-2.790606346024055
 10
4.43723126098439
 20
-2.777918677412749
 10
4.431478786796914
 20
-2.751283663777359
 10
4.428248070315552
 20
-2.736310877702458
 10
4.423519594250592
 20
-2.720786412037822
 10
4.448027731560134
 20
-2.7138521795662
 10
4.482937458065205
 20
-2.704001788984316
 10
4.490738890449872
 20
-2.675947414870052
 10
4.486247054627407
 20
-2.642377687786948
 10
4.473638747073033
 20
-2.548601777056976
 10
4.456223083372884
 20
-2.455850345425637
 10
4.430454307698331
 20
-2.364753952563445
 10
4.409256247927058
 20
-2.32023047571901
 10
4.409256247927058
 20
-2.32023047571901
 10
4.470171390349176
 20
-2.303760411036617
 10
4.477027223716075
 20
-2.296037858732777
 10
4.484828656100742
 20
-2.288866505042544
 10
4.490738890449872
 20
-2.280513393068152
 10
4.52903709359796
 20
-2.226691205231544
 10
4.522181260231061
 20
-2.202971387754208
 10
4.462527237150046
 20
-2.175626453391323
 10
4.437546781307725
 20
-2.164200385097224
 10
4.413354164321492
 20
-2.150803757710656
 10
4.389161547335258
 20
-2.137801049752119
 10
4.340697433281952
 20
-2.111717234730349
 10
4.336678877944475
 20
-2.059234565339567
 10
4.316978096780708
 20
-2.015971245884026
 10
4.306576026609112
 20
-1.993197508400549
 10
4.334236000319202
 20
-1.990675750694461
 10
4.338333435737519
 20
-1.975151285029837
 10
4.34321919098804
 20
-1.956790503288011
 10
4.345031989918854
 20
-1.939453719668677
 10
4.337072797372532
 20
-1.921486376378791
 10
4.295780037009459
 20
-1.829050465070774
 10
4.252911117958067
 20
-1.738347991636639
 10
4.137622108109629
 20
-1.718726090553698
 10
4.115714608587015
 20
-1.714943694482612
 10
4.110986613498148
 20
-1.704935543739073
 10
4.120364204571135
 20
-1.683264684458929
 10
4.13289363204467
 20
-1.654422952464668
 10
4.138961626555455
 20
-1.623925700725143
 10
4.13084515482357
 20
-1.591458851845358
 10
4.119103085230032
 20
-1.544334737213995
 10
4.104445819478466
 20
-1.532672028677401
 10
4.055982186401277
 20
-1.538266742703197
 10
4.02343645744064
 20
-1.541970739669561
 10
3.991048007665591
 20
-1.547408174509807
 10
3.958423879600231
 20
-1.550638890991169
 10
3.851487981726197
 20
-1.561277601405272
 10
3.748886159512974
 20
-1.552136169598662
 10
3.657080326899404
 20
-1.487833031509631
 10
3.636670586960362
 20
-1.473490805105282
 10
3.630996511877608
 20
-1.461749216487849
 10
3.639901303441724
 20
-1.43653212040302
 10
3.678357266751492
 20
-1.328335584163988
 10
3.689232136431959
 20
-1.218799048503026
 10
3.664409440751291
 20
-1.104140598325153
 10
3.596065622424046
 20
-0.7889988031920312
 10
3.293071840715078
 20
-0.6189598026050286
 10
3.010866808114037
 20
-0.6938304666449665
 10
3.010866808114037
 20
-0.6938304666449665
 10
3.010866808114037
 20
-0.6938304666449665
 10
3.010866808114037
 20
-0.6938304666449665
 10
3.010865846161828
 20
-0.6938304666449665
 10
3.010864403233528
 20
-0.6938309476210709
 10
3.010863441281319
 20
-0.6938309476210709
 10
2.971552783437194
 20
-0.7042604334305148
 10
2.932656726993526
 20
-0.719461683154173
 10
2.894843828732999
 20
-0.7396674892256921
 10
2.84879902447594
 20
-0.7659076214808288
 10
2.795008100086003
 20
-0.806175421769189
 10
2.738347672267764
 20
-0.8684599031554777
 10
2.714329649606801
 20
-0.897893235755987
 10
2.687954844042932
 20
-0.9263708688405484
 10
2.673302388052384
 20
-0.9656045705082634
 10
2.662742557719108
 20
-0.9455098699164384
 10
2.655020005415281
 20
-0.9321132425298704
 10
2.648479211395599
 20
-0.9181649355535657
 10
2.501196152176261
 20
-0.6037407567655843
 10
2.083933991908654
 20
-0.4960170200354367
 10
1.804182899383224
 20
-0.7266734388370221
 10
1.650122405901723
 20
-0.8537829173836952
 10
1.585109828061301
 20
-1.019427239320963
 10
1.602840531108692
 20
-1.218011209646912
 10
1.609223564966707
 20
-1.24701070180284
 10
1.615291559477504
 20
-1.276089074039596
 10
1.62222627292523
 20
-1.305009686114696
 10
1.634440661051548
 20
-1.355995076897986
 10
1.634677301294043
 20
-1.355995076897986
 10
1.580145192729952
 20
-1.347484685738032
 10
1.512374697917052
 20
-1.3334574986809
 10
1.444998122532196
 20
-1.320218631455987
 10
1.391017693557829
 20
-1.269863319367144
 10
1.370607953618787
 20
-1.250950858035594
 10
1.343420779417581
 20
-1.258673410339434
 10
1.324271677843537
 20
-1.279635310844292
 10
1.296060024543711
 20
-1.310289360793276
 10
1.274783084691636
 20
-1.344884047951104
 10
1.280693319040766
 20
-1.388777446101092
 10
1.283766756336579
 20
-1.411787823827063
 10
1.274310285182752
 20
-1.416594698996757
 10
1.253585024920375
 20
-1.419510857107007
 10
1.153032641880461
 20
-1.433458683107208
 10
1.061463449509385
 20
-1.468920089201977
 10
0.9836843229768293
 20
-1.536375544667648
 10
0.9443616407301457
 20
-1.570497432316605
 10
0.9382941271954526
 20
-1.59949692447252
 10
0.9645352214027854
 20
-1.641893044015028
 10
0.9828964841207278
 20
-1.648985517624421
 10
1.000312147820889
 20
-1.658993187391868
 10
1.031990676868468
 20
-1.659781507224074
 10
0.99684479109702
 20
-1.674281012813986
 10
0.9783257682174229
 20
-1.696897471111899
 10
0.9486173172862209
 20
-1.695321793399684
 10
0.87706394542613
 20
-1.718647210472871
 10
0.8040921750393737
 20
-1.715810413419553
 10
0.7310415245717902
 20
-1.705566103409625
 10
0.6712302223052246
 20
-1.697212991435233
 10
0.6464859257292674
 20
-1.718962730796193
 10
0.6525539202400649
 20
-1.779167952490815
 10
0.6564151963919913
 20
-1.817229996372513
 10
0.6644532690191529
 20
-1.854424840341165
 10
0.6891186855142702
 20
-1.885552170775137
 10
0.7027514721672408
 20
-1.886340490607343
 10
0.7070855478280514
 20
-1.899421597670602
 10
0.715911459311327
 20
-1.906356311118328
 10
0.7433347927789352
 20
-1.928027170398473
 10
0.7427835941653155
 20
-1.929130529577909
 10
0.7093706652916454
 20
-1.954032105339416
 10
0.7066916283999944
 20
-1.958445061081054
 10
0.7048004303644575
 20
-1.963725216735737
 10
0.7010964333980938
 20
-1.967270972564329
 10
0.6252878659580194
 20
-2.039533784175811
 10
0.5943182956857147
 20
-2.134254812947423
 10
0.5713867980405843
 20
-2.231891999829296
 10
0.5567290513129137
 20
-2.293831140373906
 10
0.5477458606440753
 20
-2.357189160421272
 10
0.5379738691669141
 20
-2.420152780064477
 10
0.5345065124430448
 20
-2.442375318934334
 10
0.5402594676066251
 20
-2.463809537971984
 10
0.5605908084409318
 20
-2.478072884295493
 10
0.6183531525102933
 20
-2.480594642001582
 10
0.6248150664491352
 20
-2.491942311190971
 10
0.6030653270881632
 20
-2.552305774023353
 10
0.6007802096245692
 20
-2.596987011029442
 10
0.6062965245456426
 20
-2.641432088769155
 10
0.6161469151275266
 20
-2.68445828700611
 10
0.645304167445109
 20
-2.81219832522336
 10
0.6471953654806586
 20
-2.935209887375625
 10
0.5683922408255991
 20
-3.0486076991885
 10
0.5598024886087134
 20
-3.060979847476473
 10
0.5550744935198584
 20
-3.077055511754704
 10
0.5600391288512078
 20
-3.09344669635627
 10
0.5600391288512078
 20
-3.09344669635627
 10
0.5607543403158262
 20
-3.09344669635627
 10
0.5607543403158262
 20
-3.09344669635627
 10
0.5607543403158262
 20
-3.09344669635627
 10
0.5600545200864973
 20
-3.093451025141197
 10
0.5600545200864973
 20
-3.093451025141197
 10
0.5600545200864973
 20
-3.093451025141197
 10
0.5586029342087563
 20
-3.095986731154249
 10
0.5586029342087563
 20
-3.095986731154249
 10
0.5586029342087563
 20
-3.095986731154249
 10
0.5615349645303997
 20
-3.095937671591805
 10
0.5616157685156319
 20
-3.095966049181849
 10
0.5616157685156319
 20
-3.095966049181849
 10
0.5616148065634358
 20
-3.095968454062358
 10
0.5616148065634358
 20
-3.095968454062358
 10
0.566579441894785
 20
-3.1044788452223
 10
0.5716229573069742
 20
-3.112989717358358
 10
0.5765875926383361
 20
-3.121579469575257
 10
0.6303313813702086
 20
-3.144432087139547
 10
0.676746537226298
 20
-3.117481553180824
 10
0.7223733732501689
 20
-3.096914053080127
 10
0.753579583764968
 20
-3.082965746103835
 10
0.763823893774909
 20
-3.084463024711315
 10
0.7694974878815452
 20
-3.121185069171083
 10
0.7834457948578372
 20
-3.211493623177173
 10
0.7851008336269968
 20
-3.304875614479063
 10
0.8269452735797813
 20
-3.389194573079092
 10
0.8420753388402443
 20
-3.419691343842512
 10
0.8529502085207241
 20
-3.454286031000341
 10
0.8746210678008689
 20
-3.479266486842688
 10
0.949720195489552
 20
-3.565713764696839
 10
0.9909345567478896
 20
-3.669340066008671
 10
1.035300754406775
 20
-3.772099167407456
 10
1.055710494345817
 20
-3.819617201466877
 10
1.096136535771949
 20
-3.853817969196673
 10
1.130258423420893
 20
-3.891880013078359
 10
1.152244322048255
 20
-3.916387669411809
 10
1.18108653501862
 20
-3.922061263518445
 10
1.208667628647883
 20
-3.906143359401893
 10
1.229944087523866
 20
-3.893771211113896
 10
1.24129175671323
 20
-3.899996484810269
 10
1.255555103036752
 20
-3.914811510723489
 10
1.303783057823656
 20
-3.964772903384275
 10
1.348306534668104
 20
-4.018280051873666
 10
1.402365362747206
 20
-4.062725129613378
 10
1.451302276309383
 20
-4.102914530797003
 10
1.504100466023488
 20
-4.116390038264424
 10
1.563202809514779
 20
-4.091251822260422
 10
1.589601663883779
 20
-4.079983033151873
 10
1.602446611680635
 20
-4.098659335217032
 10
1.617340517674708
 20
-4.111504283013902
 10
1.667853108949114
 20
-4.155003280759729
 10
1.719784579726277
 20
-4.196296522098919
 10
1.777310764529236
 20
-4.230417928771759
 10
1.809304813900149
 20
-4.249330871079413
 10
1.844293420486034
 20
-4.257368943706575
 10
1.878651467401369
 20
-4.250828149686892
 10
1.910645516772269
 20
-4.244681275095268
 10
1.934917013839342
 20
-4.253349907392981
 10
1.958557951235851
 20
-4.270528930850661
 10
2.036257716711462
 20
-4.326872876393357
 10
2.128772989076424
 20
-4.341215102797706
 10
2.219081062106397
 20
-4.359576365515649
 10
2.285512038473472
 20
-4.373130753063884
 10
2.352967493939154
 20
-4.384320662091593
 10
2.421447428503433
 20
-4.384320662091593
 10
2.456987714679043
 20
-4.384241782010753
 10
2.491976321264929
 20
-4.382192823813562
 10
2.526492128341943
 20
-4.372263553150838
 10
2.549975305576784
 20
-4.365486599864779
 10
2.572118964365801
 20
-4.371396834213909
 10
2.596627101675368
 20
-4.375888670036375
 10
2.750529354019111
 20
-4.404336482602578
 10
2.904904886847817
 20
-4.422382705973279
 10
3.036032920731991
 20
-4.305438657355706
 10
3.049035628690515
 20
-4.293775948819126
 10
3.062983935666807
 20
-4.291175311032197
 10
3.079217360106718
 20
-4.290938670789703
 10
3.115939404566486
 20
-4.290544751361645
 10
3.152740329107069
 20
-4.289914672667186
 10
3.189383974462114
 20
-4.288101873736372
 10
3.294585953486173
 20
-4.283058358324196
 10
3.372758999446761
 20
-4.231679048112861
 10
3.429260705151137
 20
-4.145152890177845
 10
3.438086616634412
 20
-4.131677863686542
 10
3.442736212618532
 20
-4.127658827372973
 10
3.458890756977603
 20
-4.136405858775409
 10
3.482452814293285
 20
-4.149250806572278
 10
3.5083788691534
 20
-4.142552733367034
 10
3.530601408023257
 20
-4.130416744345439
 10
3.594905027088392
 20
-4.095270858573991
 10
3.661966563126018
 20
-4.065010247076972
 10
3.721226185802859
 20
-4.020801809579754
 10
3.757160391406539
 20
-3.993929674725778
 10
3.790888359627413
 20
-3.965245702893172
 10
3.814529297023935
 20
-3.926316940074533
 10
3.823118568264716
 20
-3.912210872936561
 10
3.831787200562429
 20
-3.904488320632733
 10
3.852039661315909
 20
-3.909295195802416
 10
3.881354192819066
 20
-3.916151029169315
 10
3.911929843663302
 20
-3.912920312687952
 10
3.940693176552839
 20
-3.901336003256094
 10
3.942190455160345
 20
-3.899996484810269
 10
3.943687733767824
 20
-3.898420326121949
 10
3.94502725221365
 20
-3.896765768328881
 10
3.967879869777966
 20
-3.820957200888819
 10
3.974420663797648
 20
-3.741917435991278
 10
3.991363527988899
 20
-3.664848230186205
 10
4.002711197178288
 20
-3.613153399651537
 10
4.024303176377594
 20
-3.567368803465999
 10
4.048259153121332
 20
-3.520401968020198
 10
4.085769517413306
 20
-3.447194038367039
 10
4.130529634500236
 20
-3.388170093980484
 10
4.207914360628643
 20
-3.351605809682395
 10
4.267726143871313
 20
-3.323394156382569
 10
4.295385636605311
 20
-3.264449573052944
 10
4.307915545054938
 20
-3.199673154478912
 10
4.311776821206851
 20
-3.17989349323433
 10
4.312249620715749
 20
-3.158774313543896
 10
4.324227849575664
 20
-3.141122490577345
 10
4.326591847120097
 20
-3.121736748760819
 10
4.329034724745371
 20
-3.102193727758706
 10
4.331398722289779
 20
-3.082729586837432
 10
4.320523852609313
 20
-3.051365616160991
 10
4.336127198354764
 20
-3.021499405068122
 10
4.336836157130039
 20
-2.990687113981367
 10
4.337230557534187
 20
-2.975793688963399
 10
4.350942224267984
 20
-2.972799131748439
 10
4.36355053182236
 20
-2.976502647738698
 10
4.419264398670622
 20
-2.993051592501918
 10
4.470644189858048
 20
-2.984776879632237
 10
4.517768304489411
 20
-2.950734353040237
 10
4.563710660836628
 20
-2.866099393140783
 10
4.561425062396918
 20
-2.856643402963073
 10
4.480494580439932
 20
-2.804160252596173
 97
        0
 97
        0
 92
        1
 93
        1
 72
     4
 94
        3
 73
     0
 74
     1
 95
       14
 96
       10
 40
0.0
 40
0.0
 40
0.0
 40
0.0
 40
1.0
 40
1.0
 40
1.0
 40
2.0
 40
2.0
 40
2.0
 40
3.0
 40
3.0
 40
3.0
 40
3.0
 10
0.5623030833662975
 20
-3.094395181230665
 10
0.5625074982099123
 20
-3.093898813892742
 10
0.5626864213200962
 20
-3.093462087591559
 10
0.5626926740094278
 20
-3.09344669635627
 10
0.5626926740094278
 20
-3.09344669635627
 10
0.5627181657428714
 20
-3.09344669635627
 10
0.5627181657428714
 20
-3.09344669635627
 10
0.5627181657428714
 20
-3.09344669635627
 10
0.5623030833662975
 20
-3.094395181230665
 10
0.5623030833662975
 20
-3.094395181230665
 97
        0
 97
        0
 75
     2
 76
     1
 98
        0
  0
INSERT
  5
45
330
1F
100
AcDbEntity
  8
Layer 1
100
AcDbBlockReference
  2
block 2
 10
0.0
 20
0.0
 30
0.0
  0
ENDSEC
  0
SECTION
  2
OBJECTS
  0
DICTIONARY
  5
C
330
0
100
AcDbDictionary
281
     1
  3
ACAD_GROUP
350
D
  3
ACAD_LAYOUT
350
1A
  3
ACAD_MATERIAL
350
3B
  3
ACAD_MLEADERSTYLE
350
50
  3
ACAD_MLINESTYLE
350
17
  3
ACAD_PLOTSETTINGS
350
19
  3
ACAD_PLOTSTYLENAME
350
E
  3
ACAD_TABLESTYLE
350
4F
  3
ACAD_VISUALSTYLE
350
2A
  0
SUN
  5
3F
330
29
100
AcDbSun
 90
        1
290
     0
 63
     7
421
 16777215
 40
1.0
291
     1
 91
  2455826
 92
 54000000
292
     0
 70
     2
 71
   256
280
     1
  0
DICTIONARY
  5
D
102
{ACAD_REACTORS
330
C
102
}
330
C
100
AcDbDictionary
281
     1
  0
DICTIONARY
  5
1A
102
{ACAD_REACTORS
330
C
102
}
330
C
100
AcDbDictionary
281
     1
  3
Layout1
350
1E
  3
Layout2
350
26
  3
Model
350
22
  0
DICTIONARY
  5
3B
102
{ACAD_REACTORS
330
C
102
}
330
C
100
AcDbDictionary
281
     1
  3
ByBlock
350
3D
  3
ByLayer
350
3C
  3
Global
350
3E
  0
DICTIONARY
  5
50
102
{ACAD_REACTORS
330
C
102
}
330
C
100
AcDbDictionary
281
     1
  0
DICTIONARY
  5
17
102
{ACAD_REACTORS
330
C
102
}
330
C
100
AcDbDictionary
281
     1
  3
Standard
350
18
  0
DICTIONARY
  5
19
102
{ACAD_REACTORS
330
C
102
}
330
C
100
AcDbDictionary
281
     1
  0
ACDBDICTIONARYWDFLT
  5
E
102
{ACAD_REACTORS
330
C
102
}
330
C
100
AcDbDictionary
281
     1
  3
Normal
350
F
100
AcDbDictionaryWithDefault
340
F
  0
DICTIONARY
  5
4F
102
{ACAD_REACTORS
330
C
102
}
330
C
100
AcDbDictionary
281
     1
  0
DICTIONARY
  5
2A
102
{ACAD_REACTORS
330
C
102
}
330
C
100
AcDbDictionary
281
     1
  3
2dWireframe
350
2F
  3
3D Hidden
350
31
  3
3dWireframe
350
30
  3
Basic
350
32
  3
Brighten
350
36
  3
ColorChange
350
3A
  3
Conceptual
350
34
  3
Dim
350
35
  3
Facepattern
350
39
  3
Flat
350
2B
  3
FlatWithEdges
350
2C
  3
Gouraud
350
2D
  3
GouraudWithEdges
350
2E
  3
Linepattern
350
38
  3
Realistic
350
33
  3
Thicken
350
37
  0
LAYOUT
  5
1E
102
{ACAD_REACTORS
330
1A
102
}
330
1A
100
AcDbPlotSettings
  1

  2
none_device
  4

  6

 40
0.0
 41
0.0
 42
0.0
 43
0.0
 44
0.0
 45
0.0
 46
0.0
 47
0.0
 48
0.0
 49
0.0
140
0.0
141
0.0
142
1.0
143
1.0
 70
   688
 72
     0
 73
     0
 74
     5
  7

 75
    16
 76
     0
 77
     2
 78
   300
147
1.0
148
0.0
149
0.0
100
AcDbLayout
  1
Layout1
 70
     1
 71
     1
 10
0.0
 20
0.0
 11
12.0
 21
9.0
 12
0.0
 22
0.0
 32
0.0
 14
1.000000000000000E+20
 24
1.000000000000000E+20
 34
1.000000000000000E+20
 15
-1.000000000000000E+20
 25
-1.000000000000000E+20
 35
-1.000000000000000E+20
146
0.0
 13
0.0
 23
0.0
 33
0.0
 16
1.0
 26
0.0
 36
0.0
 17
0.0
 27
1.0
 37
0.0
 76
     0
330
1B
  0
LAYOUT
  5
26
102
{ACAD_REACTORS
330
1A
102
}
330
1A
100
AcDbPlotSettings
  1

  2
none_device
  4

  6

 40
0.0
 41
0.0
 42
0.0
 43
0.0
 44
0.0
 45
0.0
 46
0.0
 47
0.0
 48
0.0
 49
0.0
140
0.0
141
0.0
142
1.0
143
1.0
 70
   688
 72
     0
 73
     0
 74
     5
  7

 75
    16
 76
     0
 77
     2
 78
   300
147
1.0
148
0.0
149
0.0
100
AcDbLayout
  1
Layout2
 70
     1
 71
     2
 10
0.0
 20
0.0
 11
0.0
 21
0.0
 12
0.0
 22
0.0
 32
0.0
 14
0.0
 24
0.0
 34
0.0
 15
0.0
 25
0.0
 35
0.0
146
0.0
 13
0.0
 23
0.0
 33
0.0
 16
1.0
 26
0.0
 36
0.0
 17
0.0
 27
1.0
 37
0.0
 76
     0
330
23
  0
LAYOUT
  5
22
102
{ACAD_REACTORS
330
1A
102
}
330
1A
100
AcDbPlotSettings
  1

  2
none_device
  4

  6

 40
0.0
 41
0.0
 42
0.0
 43
0.0
 44
0.0
 45
0.0
 46
0.0
 47
0.0
 48
0.0
 49
0.0
140
0.0
141
0.0
142
1.0
143
1.0
 70
  1712
 72
     0
 73
     0
 74
     0
  7

 75
     0
 76
     0
 77
     2
 78
   300
147
1.0
148
0.0
149
0.0
100
AcDbLayout
  1
Model
 70
     1
 71
     0
 10
0.0
 20
0.0
 11
12.0
 21
9.0
 12
0.0
 22
0.0
 32
0.0
 14
1.000000000000000E+20
 24
1.000000000000000E+20
 34
1.000000000000000E+20
 15
-1.000000000000000E+20
 25
-1.000000000000000E+20
 35
-1.000000000000000E+20
146
0.0
 13
0.0
 23
0.0
 33
0.0
 16
1.0
 26
0.0
 36
0.0
 17
0.0
 27
1.0
 37
0.0
 76
     0
330
1F
331
29
  0
MATERIAL
  5
3D
102
{ACAD_REACTORS
330
3B
102
}
330
3B
100
AcDbMaterial
  1
ByBlock
 72
     1
 94
      127
  0
MATERIAL
  5
3C
102
{ACAD_REACTORS
330
3B
102
}
330
3B
100
AcDbMaterial
  1
ByLayer
 72
     1
 94
      127
  0
MATERIAL
  5
3E
102
{ACAD_REACTORS
330
3B
102
}
330
3B
100
AcDbMaterial
  1
Global
 72
     1
 94
      127
  0
MLINESTYLE
  5
18
102
{ACAD_REACTORS
330
17
102
}
330
17
100
AcDbMlineStyle
  2
Standard
 70
     0
  3

 62
   256
 51
90.0
 52
90.0
 71
     2
 49
0.5
 62
   256
  6
BYLAYER
 49
-0.5
 62
   256
  6
BYLAYER
  0
ACDBPLACEHOLDER
  5
F
102
{ACAD_REACTORS
330
E
102
}
330
E
  0
VISUALSTYLE
  5
2F
102
{ACAD_REACTORS
330
2A
102
}
330
2A
100
AcDbVisualStyle
  2
2dWireframe
 70
     4
177
     2
291
     0
 71
     0
176
     1
 72
     2
176
     1
 73
     0
176
     1
 90
        0
176
     1
 40
-0.6
176
     1
 41
-30.0
176
     1
 62
     5
 63
     7
421
 16777215
176
     1
 74
     1
176
     1
 91
        4
176
     1
 64
     7
176
     1
 65
   257
176
     1
 75
     1
176
     1
175
     1
176
     1
 42
1.0
176
     1
 92
        0
176
     1
 66
   257
176
     1
 43
1.0
176
     1
 76
     1
176
     1
 77
     6
176
     1
 78
     2
176
     1
 67
     7
176
     1
 79
     5
176
     1
170
     0
176
     1
171
     0
176
     1
290
     0
176
     1
 93
        1
176
     1
 44
0.0
176
     1
173
     0
176
     1
  0
VISUALSTYLE
  5
31
102
{ACAD_REACTORS
330
2A
102
}
330
2A
100
AcDbVisualStyle
  2
3D Hidden
 70
     6
177
     2
291
     0
 71
     1
176
     1
 72
     2
176
     1
 73
     2
176
     1
 90
        0
176
     1
 40
-0.6
176
     1
 41
-30.0
176
     1
 62
     5
 63
     7
421
 16777215
176
     1
 74
     2
176
     1
 91
        2
176
     1
 64
     7
176
     1
 65
   257
176
     1
 75
     2
176
     1
175
     1
176
     1
 42
40.0
176
     1
 92
        0
176
     1
 66
   257
176
     1
 43
1.0
176
     1
 76
     1
176
     1
 77
     6
176
     1
 78
     2
176
     1
 67
     7
176
     1
 79
     3
176
     1
170
     0
176
     1
171
     0
176
     1
290
     0
176
     1
 93
        1
176
     1
 44
0.0
176
     1
173
     0
176
     1
  0
VISUALSTYLE
  5
30
102
{ACAD_REACTORS
330
2A
102
}
330
2A
100
AcDbVisualStyle
  2
3dWireframe
 70
     5
177
     2
291
     0
 71
     0
176
     1
 72
     2
176
     1
 73
     0
176
     1
 90
        0
176
     1
 40
-0.6
176
     1
 41
-30.0
176
     1
 62
     5
 63
     7
421
 16777215
176
     1
 74
     1
176
     1
 91
        4
176
     1
 64
     7
176
     1
 65
   257
176
     1
 75
     1
176
     1
175
     1
176
     1
 42
1.0
176
     1
 92
        0
176
     1
 66
   257
176
     1
 43
1.0
176
     1
 76
     1
176
     1
 77
     6
176
     1
 78
     2
176
     1
 67
     7
176
     1
 79
     5
176
     1
170
     0
176
     1
171
     0
176
     1
290
     0
176
     1
 93
        1
176
     1
 44
0.0
176
     1
173
     0
176
     1
  0
VISUALSTYLE
  5
32
102
{ACAD_REACTORS
330
2A
102
}
330
2A
100
AcDbVisualStyle
  2
Basic
 70
     7
177
     2
291
     1
 71
     1
176
     1
 72
     0
176
     1
 73
     1
176
     1
 90
        0
176
     1
 40
-0.6
176
     1
 41
-30.0
176
     1
 62
     5
 63
     7
421
 16777215
176
     1
 74
     0
176
     1
 91
        4
176
     1
 64
     7
176
     1
 65
   257
176
     1
 75
     1
176
     1
175
     1
176
     1
 42
1.0
176
     1
 92
        8
176
     1
 66
     7
176
     1
 43
1.0
176
     1
 76
     1
176
     1
 77
     6
176
     1
 78
     2
176
     1
 67
     7
176
     1
 79
     5
176
     1
170
     0
176
     1
171
     0
176
     1
290
     0
176
     1
 93
        1
176
     1
 44
0.0
176
     1
173
     0
176
     1
  0
VISUALSTYLE
  5
36
102
{ACAD_REACTORS
330
2A
102
}
330
2A
100
AcDbVisualStyle
  2
Brighten
 70
    12
177
     2
291
     1
 71
     2
176
     1
 72
     2
176
     1
 73
     0
176
     1
 90
        0
176
     1
 40
-0.6
176
     1
 41
-30.0
176
     1
 62
     5
 63
     7
421
 16777215
176
     1
 74
     1
176
     1
 91
        4
176
     1
 64
     7
176
     1
 65
   257
176
     1
 75
     1
176
     1
175
     1
176
     1
 42
1.0
176
     1
 92
        8
176
     1
 66
     7
176
     1
 43
1.0
176
     1
 76
     1
176
     1
 77
     6
176
     1
 78
     2
176
     1
 67
     7
176
     1
 79
     5
176
     1
170
     0
176
     1
171
     0
176
     1
290
     0
176
     1
 93
        1
176
     1
 44
50.0
176
     1
173
     0
176
     1
  0
VISUALSTYLE
  5
3A
102
{ACAD_REACTORS
330
2A
102
}
330
2A
100
AcDbVisualStyle
  2
ColorChange
 70
    16
177
     2
291
     1
 71
     2
176
     1
 72
     2
176
     1
 73
     3
176
     1
 90
        0
176
     1
 40
-0.6
176
     1
 41
-30.0
176
     1
 62
     5
 63
     8
421
  8421504
176
     1
 74
     1
176
     1
 91
        4
176
     1
 64
     7
176
     1
 65
   257
176
     1
 75
     1
176
     1
175
     1
176
     1
 42
1.0
176
     1
 92
        8
176
     1
 66
     8
424
  8421504
176
     1
 43
1.0
176
     1
 76
     1
176
     1
 77
     6
176
     1
 78
     2
176
     1
 67
     7
176
     1
 79
     5
176
     1
170
     0
176
     1
171
     0
176
     1
290
     0
176
     1
 93
        1
176
     1
 44
0.0
176
     1
173
     0
176
     1
  0
VISUALSTYLE
  5
34
102
{ACAD_REACTORS
330
2A
102
}
330
2A
100
AcDbVisualStyle
  2
Conceptual
 70
     9
177
     2
291
     0
 71
     3
176
     1
 72
     2
176
     1
 73
     0
176
     1
 90
        0
176
     1
 40
-0.6
176
     1
 41
-30.0
176
     1
 62
     5
 63
     7
421
 16777215
176
     1
 74
     2
176
     1
 91
        2
176
     1
 64
     7
176
     1
 65
   257
176
     1
 75
     1
176
     1
175
     1
176
     1
 42
40.0
176
     1
 92
        8
176
     1
 66
     7
176
     1
 43
1.0
176
     1
 76
     1
176
     1
 77
     6
176
     1
 78
     2
176
     1
 67
     7
176
     1
 79
     3
176
     1
170
     0
176
     1
171
     0
176
     1
290
     0
176
     1
 93
        1
176
     1
 44
0.0
176
     1
173
     0
176
     1
  0
VISUALSTYLE
  5
35
102
{ACAD_REACTORS
330
2A
102
}
330
2A
100
AcDbVisualStyle
  2
Dim
 70
    11
177
     2
291
     1
 71
     2
176
     1
 72
     2
176
     1
 73
     0
176
     1
 90
        0
176
     1
 40
-0.6
176
     1
 41
-30.0
176
     1
 62
     5
 63
     7
421
 16777215
176
     1
 74
     1
176
     1
 91
        4
176
     1
 64
     7
176
     1
 65
   257
176
     1
 75
     1
176
     1
175
     1
176
     1
 42
1.0
176
     1
 92
        8
176
     1
 66
     7
176
     1
 43
1.0
176
     1
 76
     1
176
     1
 77
     6
176
     1
 78
     2
176
     1
 67
     7
176
     1
 79
     5
176
     1
170
     0
176
     1
171
     0
176
     1
290
     0
176
     1
 93
        1
176
     1
 44
-50.0
176
     1
173
     0
176
     1
  0
VISUALSTYLE
  5
39
102
{ACAD_REACTORS
330
2A
102
}
330
2A
100
AcDbVisualStyle
  2
Facepattern
 70
    15
177
     2
291
     1
 71
     2
176
     1
 72
     2
176
     1
 73
     0
176
     1
 90
        0
176
     1
 40
-0.6
176
     1
 41
-30.0
176
     1
 62
     5
 63
     7
421
 16777215
176
     1
 74
     1
176
     1
 91
        4
176
     1
 64
     7
176
     1
 65
   257
176
     1
 75
     1
176
     1
175
     1
176
     1
 42
1.0
176
     1
 92
        8
176
     1
 66
     7
176
     1
 43
1.0
176
     1
 76
     1
176
     1
 77
     6
176
     1
 78
     2
176
     1
 67
     7
176
     1
 79
     5
176
     1
170
     0
176
     1
171
     0
176
     1
290
     0
176
     1
 93
        1
176
     1
 44
0.0
176
     1
173
     0
176
     1
  0
VISUALSTYLE
  5
2B
102
{ACAD_REACTORS
330
2A
102
}
330
2A
100
AcDbVisualStyle
  2
Flat
 70
     0
177
     2
291
     1
 71
     2
176
     1
 72
     1
176
     1
 73
     1
176
     1
 90
        2
176
     1
 40
-0.6
176
     1
 41
30.0
176
     1
 62
     5
 63
     7
421
 16777215
176
     1
 74
     0
176
     1
 91
        4
176
     1
 64
     7
176
     1
 65
   257
176
     1
 75
     1
176
     1
175
     1
176
     1
 42
1.0
176
     1
 92
        8
176
     1
 66
     7
176
     1
 43
1.0
176
     1
 76
     1
176
     1
 77
     6
176
     1
 78
     2
176
     1
 67
     7
176
     1
 79
     5
176
     1
170
     0
176
     1
171
     0
176
     1
290
     0
176
     1
 93
       13
176
     1
 44
0.0
176
     1
173
     0
176
     1
  0
VISUALSTYLE
  5
2C
102
{ACAD_REACTORS
330
2A
102
}
330
2A
100
AcDbVisualStyle
  2
FlatWithEdges
 70
     1
177
     2
291
     1
 71
     2
176
     1
 72
     1
176
     1
 73
     1
176
     1
 90
        2
176
     1
 40
-0.6
176
     1
 41
30.0
176
     1
 62
     5
 63
     7
421
 16777215
176
     1
 74
     1
176
     1
 91
        4
176
     1
 64
     7
176
     1
 65
   257
176
     1
 75
     1
176
     1
175
     1
176
     1
 42
1.0
176
     1
 92
        0
176
     1
 66
   257
176
     1
 43
1.0
176
     1
 76
     1
176
     1
 77
     6
176
     1
 78
     2
176
     1
 67
     7
176
     1
 79
     5
176
     1
170
     0
176
     1
171
     0
176
     1
290
     0
176
     1
 93
       13
176
     1
 44
0.0
176
     1
173
     0
176
     1
  0
VISUALSTYLE
  5
2D
102
{ACAD_REACTORS
330
2A
102
}
330
2A
100
AcDbVisualStyle
  2
Gouraud
 70
     2
177
     2
291
     1
 71
     2
176
     1
 72
     2
176
     1
 73
     1
176
     1
 90
        2
176
     1
 40
-0.6
176
     1
 41
30.0
176
     1
 62
     5
 63
     7
421
 16777215
176
     1
 74
     0
176
     1
 91
        4
176
     1
 64
     7
176
     1
 65
   257
176
     1
 75
     1
176
     1
175
     1
176
     1
 42
1.0
176
     1
 92
        0
176
     1
 66
     7
176
     1
 43
1.0
176
     1
 76
     1
176
     1
 77
     6
176
     1
 78
     2
176
     1
 67
     7
176
     1
 79
     5
176
     1
170
     0
176
     1
171
     0
176
     1
290
     0
176
     1
 93
       13
176
     1
 44
0.0
176
     1
173
     0
176
     1
  0
VISUALSTYLE
  5
2E
102
{ACAD_REACTORS
330
2A
102
}
330
2A
100
AcDbVisualStyle
  2
GouraudWithEdges
 70
     3
177
     2
291
     1
 71
     2
176
     1
 72
     2
176
     1
 73
     1
176
     1
 90
        2
176
     1
 40
-0.6
176
     1
 41
30.0
176
     1
 62
     5
 63
     7
421
 16777215
176
     1
 74
     1
176
     1
 91
        4
176
     1
 64
     7
176
     1
 65
   257
176
     1
 75
     1
176
     1
175
     1
176
     1
 42
1.0
176
     1
 92
        0
176
     1
 66
   257
176
     1
 43
1.0
176
     1
 76
     1
176
     1
 77
     6
176
     1
 78
     2
176
     1
 67
     7
176
     1
 79
     5
176
     1
170
     0
176
     1
171
     0
176
     1
290
     0
176
     1
 93
       13
176
     1
 44
0.0
176
     1
173
     0
176
     1
  0
VISUALSTYLE
  5
38
102
{ACAD_REACTORS
330
2A
102
}
330
2A
100
AcDbVisualStyle
  2
Linepattern
 70
    14
177
     2
291
     1
 71
     2
176
     1
 72
     2
176
     1
 73
     0
176
     1
 90
        0
176
     1
 40
-0.6
176
     1
 41
-30.0
176
     1
 62
     5
 63
     7
421
 16777215
176
     1
 74
     1
176
     1
 91
        4
176
     1
 64
     7
176
     1
 65
   257
176
     1
 75
     7
176
     1
175
     7
176
     1
 42
1.0
176
     1
 92
        8
176
     1
 66
     7
176
     1
 43
1.0
176
     1
 76
     1
176
     1
 77
     6
176
     1
 78
     2
176
     1
 67
     7
176
     1
 79
     5
176
     1
170
     0
176
     1
171
     0
176
     1
290
     0
176
     1
 93
        1
176
     1
 44
0.0
176
     1
173
     0
176
     1
  0
VISUALSTYLE
  5
33
102
{ACAD_REACTORS
330
2A
102
}
330
2A
100
AcDbVisualStyle
  2
Realistic
 70
     8
177
     2
291
     0
 71
     2
176
     1
 72
     2
176
     1
 73
     0
176
     1
 90
        0
176
     1
 40
-0.6
176
     1
 41
-30.0
176
     1
 62
     5
 63
     7
421
 16777215
176
     1
 74
     1
176
     1
 91
        0
176
     1
 64
     7
176
     1
 65
   257
176
     1
 75
     1
176
     1
175
     1
176
     1
 42
1.0
176
     1
 92
        8
176
     1
 66
     8
424
  7895160
176
     1
 43
1.0
176
     1
 76
     1
176
     1
 77
     6
176
     1
 78
     2
176
     1
 67
     7
176
     1
 79
     5
176
     1
170
     0
176
     1
171
     0
176
     1
290
     0
176
     1
 93
       13
176
     1
 44
0.0
176
     1
173
     0
176
     1
  0
VISUALSTYLE
  5
37
102
{ACAD_REACTORS
330
2A
102
}
330
2A
100
AcDbVisualStyle
  2
Thicken
 70
    13
177
     2
291
     1
 71
     2
176
     1
 72
     2
176
     1
 73
     0
176
     1
 90
        0
176
     1
 40
-0.6
176
     1
 41
-30.0
176
     1
 62
     5
 63
     7
421
 16777215
176
     1
 74
     1
176
     1
 91
        4
176
     1
 64
     7
176
     1
 65
   257
176
     1
 75
     1
176
     1
175
     1
176
     1
 42
1.0
176
     1
 92
       12
176
     1
 66
     7
176
     1
 43
1.0
176
     1
 76
     1
176
     1
 77
     6
176
     1
 78
     2
176
     1
 67
     7
176
     1
 79
     5
176
     1
170
     0
176
     1
171
     0
176
     1
290
     0
176
     1
 93
        1
176
     1
 44
0.0
176
     1
173
     0
176
     1
  0
ENDSEC
  0
EOF
